<?xml version="1.0" standalone="no"?>
<!DOCTYPE svg PUBLIC "-//W3C//DTD SVG 20010904//EN"
 "http://www.w3.org/TR/2001/REC-SVG-20010904/DTD/svg10.dtd">
<svg version="1.0" xmlns="http://www.w3.org/2000/svg"
 width="1280.000000pt" height="958.000000pt" viewBox="0 0 1280.000000 958.000000"
 preserveAspectRatio="xMidYMid meet">
<metadata>
Created by potrace 1.15, written by Peter Selinger 2001-2017
</metadata>
<g transform="translate(0.000000,958.000000) scale(0.100000,-0.100000)"
fill="#ffffff" stroke="none">
<path d="M876 9564 c-3 -9 -6 -29 -6 -45 l0 -29 -112 0 c-131 0 -423 -15 -620
-31 l-138 -12 0 -30 0 -30 82 7 c227 18 372 26 567 33 l214 6 -8 -79 c-4 -43
-9 -82 -11 -85 -2 -3 -100 -9 -219 -13 -206 -6 -586 -32 -612 -41 -7 -2 -13
-16 -13 -30 0 -31 -3 -30 245 -10 98 8 273 17 389 21 l209 7 -6 -39 c-4 -21
-7 -58 -7 -81 l0 -41 -82 -6 c-46 -3 -173 -10 -283 -16 -110 -5 -260 -16 -332
-22 l-133 -12 0 -28 c0 -34 -5 -34 240 -14 96 8 218 17 270 21 l95 6 -37 -36
c-37 -36 -56 -89 -45 -120 8 -18 1 -19 -278 -41 -121 -9 -226 -19 -233 -21 -6
-3 -12 -18 -12 -35 0 -29 1 -29 42 -23 250 34 740 57 1106 53 241 -2 294 -6
302 -17 7 -12 11 -13 24 -2 13 11 43 12 134 7 156 -10 414 -34 420 -41 3 -2
-10 -38 -28 -79 -30 -69 -34 -75 -59 -71 -56 10 -298 25 -544 35 -339 14 -808
-2 -1207 -40 -197 -19 -190 -17 -190 -51 0 -16 4 -29 9 -29 4 0 73 7 152 15
408 42 877 59 1249 45 246 -9 520 -28 529 -36 2 -2 -4 -21 -13 -44 -12 -31
-13 -42 -4 -45 7 -2 108 -20 223 -40 116 -19 222 -38 238 -41 25 -5 29 -2 52
51 l25 56 38 -6 c324 -55 794 -166 1133 -269 267 -81 272 -83 266 -101 -6 -14
11 -19 157 -45 65 -11 140 -37 416 -145 612 -239 1269 -557 2045 -988 273
-151 692 -404 698 -421 4 -11 -14 -30 -61 -63 -37 -26 -150 -106 -251 -177
-101 -72 -186 -131 -190 -130 -16 2 -42 101 -37 142 3 23 2 42 -2 42 -4 0 -32
-68 -61 -151 -47 -129 -59 -154 -90 -180 -20 -16 -42 -29 -49 -29 -8 0 -100
31 -205 69 -691 248 -1415 448 -2112 585 -245 47 -615 108 -780 127 -98 12
-158 28 -105 29 54 0 130 76 130 129 0 27 -46 61 -84 61 -43 -1 -108 -32 -134
-65 -12 -15 -25 -50 -28 -77 -7 -49 -7 -50 -38 -44 -43 7 -439 44 -616 56 -80
6 -306 13 -502 17 -337 6 -358 7 -358 24 0 28 -48 54 -96 52 -49 -2 -77 -14
-120 -54 -29 -28 -36 -30 -170 -39 -383 -27 -755 -83 -1069 -161 -190 -47
-185 -45 -185 -86 0 -29 3 -34 18 -28 32 12 317 85 332 85 8 -1 0 -9 -19 -19
-59 -31 -120 -100 -142 -161 l-20 -56 -85 -28 c-84 -27 -84 -27 -84 -62 0 -19
3 -34 7 -34 5 0 44 12 87 26 57 19 81 24 84 15 9 -28 55 -71 88 -81 101 -34
214 48 184 133 -13 38 -11 39 91 62 55 13 83 15 90 8 13 -13 34 -135 27 -155
-4 -9 -24 -19 -45 -23 -64 -12 -352 -101 -487 -150 l-126 -47 0 -40 c0 -34 2
-39 18 -33 137 59 628 222 638 212 7 -6 -14 -100 -33 -155 l-18 -52 -140 -48
c-134 -47 -317 -117 -418 -162 -45 -20 -47 -23 -47 -60 0 -22 2 -40 4 -40 2 0
37 15 78 34 87 40 284 119 378 151 36 13 74 26 85 31 24 10 -8 -36 -123 -174
-42 -51 -77 -98 -77 -104 0 -8 -148 -81 -312 -154 -29 -13 -33 -19 -33 -54 0
-22 5 -40 10 -40 6 0 59 24 118 54 322 162 724 307 1126 406 190 47 582 120
646 120 l29 0 -6 -130 c-5 -105 -3 -130 7 -130 8 0 121 21 252 46 l238 46 0
57 c0 31 3 80 7 110 l6 53 431 -5 c383 -5 729 -23 815 -43 l24 -5 -8 -140 c-4
-76 -4 -139 1 -139 10 0 376 70 397 76 14 5 17 18 17 80 l0 75 33 -5 c279 -46
515 -91 523 -99 3 -3 0 -33 -7 -66 -6 -34 -9 -64 -6 -68 3 -3 90 -2 192 2
l185 7 0 24 c0 13 3 24 8 24 17 0 503 -128 509 -134 4 -4 -7 -52 -24 -106 -17
-55 -27 -103 -22 -106 4 -2 22 42 40 98 17 57 33 105 34 106 3 4 297 -77 303
-83 10 -9 -1074 -805 -1096 -805 -4 0 -25 43 -47 96 -22 52 -42 97 -45 99 -7
4 -644 -442 -648 -454 -1 -4 13 -44 32 -89 l35 -81 -107 -59 c-59 -33 -125
-69 -148 -80 l-41 -21 -11 38 c-16 51 -59 113 -105 150 -21 16 -83 49 -139 73
-105 45 -172 94 -208 153 -18 30 -50 48 -50 29 0 -3 59 -132 130 -286 72 -155
129 -282 127 -284 -13 -13 -558 -244 -576 -244 -3 0 -28 56 -56 125 -27 69
-53 125 -57 125 -13 0 -9 -13 41 -138 l49 -121 -81 -29 c-413 -149 -855 -256
-1295 -315 l-104 -14 -11 25 c-9 20 -8 26 7 37 16 12 16 18 7 48 -9 27 -16 34
-31 30 -12 -3 -20 0 -20 7 0 30 -33 121 -41 113 -5 -5 -1 -37 10 -76 19 -65
19 -67 1 -77 -28 -15 -28 -15 -46 48 -19 67 -23 74 -34 67 -4 -3 1 -35 12 -72
19 -63 19 -67 3 -79 -15 -11 -16 -18 -6 -45 6 -18 9 -34 7 -36 -8 -8 -623 -36
-641 -29 -7 2 -18 33 -24 67 l-11 63 43 56 c92 117 127 207 127 322 0 131 -57
289 -107 296 -31 5 -86 -67 -113 -146 -27 -84 -37 -225 -21 -316 l12 -68 -69
-73 c-72 -75 -147 -166 -154 -185 -2 -7 -60 -6 -188 4 -102 8 -187 12 -189 10
-10 -10 12 -13 139 -24 237 -19 233 -18 207 -55 -13 -17 -19 -17 -168 -1 -180
19 -179 19 -179 7 0 -4 30 -11 68 -14 37 -4 112 -12 168 -18 98 -11 101 -12
96 -35 -5 -30 -19 -30 -197 -5 -72 10 -132 17 -134 15 -11 -10 19 -17 165 -37
l159 -23 3 -27 c2 -15 -1 -27 -5 -27 -5 0 -78 11 -162 25 -135 22 -175 25
-160 11 2 -2 76 -16 164 -30 87 -15 160 -28 161 -29 1 -1 6 -15 9 -30 9 -33
28 -34 -195 9 -141 27 -140 27 -140 16 0 -5 79 -23 176 -42 l175 -33 19 -36
c34 -66 89 -119 158 -153 58 -29 76 -33 142 -32 l76 0 17 -82 c30 -145 17
-222 -44 -267 -39 -28 -112 -34 -146 -12 l-27 18 42 18 c69 30 83 118 27 166
-66 58 -160 -3 -158 -101 1 -52 21 -85 70 -116 80 -51 189 -38 246 29 48 57
53 99 27 241 l-22 124 23 16 c13 8 45 35 71 59 l48 43 142 -13 c129 -13 143
-16 146 -34 9 -53 24 -95 33 -95 10 0 8 17 -8 88 -5 21 -2 23 23 20 23 -2 30
-9 34 -32 3 -16 10 -31 17 -33 8 -3 10 6 7 29 l-6 34 94 -9 c51 -5 272 -10
491 -10 448 -2 398 7 412 -80 3 -21 10 -35 14 -33 5 3 4 29 -1 57 -5 28 -8 52
-6 54 2 1 93 10 203 19 546 46 1190 163 1634 297 35 10 65 19 67 19 2 0 10
-15 17 -32 21 -48 51 -71 95 -71 84 0 161 72 195 183 3 10 77 42 198 84 247
88 626 240 984 396 1002 435 1233 529 1595 650 296 100 646 191 887 232 82 14
53 21 347 -91 87 -33 161 -63 164 -65 2 -3 -10 -28 -27 -57 -18 -28 -31 -52
-29 -54 2 -1 56 -19 120 -39 65 -20 124 -39 132 -42 11 -4 25 10 48 45 21 35
36 50 46 46 143 -55 649 -192 887 -240 168 -34 165 -32 150 -86 -7 -29 -15
-27 168 -45 l67 -6 11 31 c13 36 9 36 177 16 68 -8 210 -20 315 -26 106 -7
193 -13 194 -14 1 0 -4 -30 -13 -65 -8 -35 -13 -68 -11 -73 1 -5 11 24 20 65
l18 75 132 -5 c73 -2 134 -6 135 -8 2 -1 0 -70 -5 -153 -4 -83 -5 -151 -2
-151 4 0 10 68 14 150 6 141 8 150 26 145 10 -3 26 -2 36 3 10 5 70 13 133 17
94 5 113 4 103 -6 -21 -21 -15 -48 11 -55 32 -8 86 21 86 46 0 22 -6 21 340
45 l235 17 134 -69 c74 -37 204 -105 288 -150 85 -46 156 -83 158 -83 3 0 5
61 5 135 l0 135 -75 37 c-96 48 -75 63 53 37 17 -3 22 0 22 17 0 17 -5 20 -32
18 -18 -1 -46 -1 -63 1 -23 2 -17 5 30 15 77 16 48 18 -50 4 -66 -10 -83 -9
-133 7 l-57 18 75 13 c91 14 140 16 140 4 0 -5 -34 -12 -76 -16 -41 -4 -73 -9
-70 -12 8 -8 236 20 236 29 0 16 -41 28 -97 28 -64 0 -57 19 7 21 19 0 46 5
60 10 20 7 16 8 -15 4 -153 -19 -189 -18 -360 15 -123 23 -197 44 -265 72 -52
22 -97 42 -98 43 -2 2 5 8 16 14 13 7 36 6 78 -4 113 -26 360 -74 479 -94 192
-31 197 -31 192 -18 -2 6 -42 18 -88 25 -120 19 -438 79 -541 103 -73 17 -88
24 -88 40 0 31 -41 44 -78 25 -42 -22 -140 -2 -153 30 -12 33 -27 38 -68 24
-34 -11 -49 -8 -162 25 -68 20 -126 38 -128 40 -4 5 19 65 26 65 2 0 79 -22
171 -50 225 -66 442 -122 645 -165 194 -41 459 -87 465 -81 12 13 -14 24 -65
31 -101 12 -451 84 -653 135 -220 55 -530 147 -544 160 -5 5 -4 21 3 38 l12
29 170 -54 c226 -71 548 -153 794 -201 261 -52 288 -56 283 -40 -3 7 -76 25
-179 44 -285 53 -546 116 -804 195 -216 67 -255 80 -251 88 15 23 44 111 38
111 -5 0 -16 -23 -26 -51 -10 -28 -24 -53 -30 -55 -10 -4 -95 25 -358 122 -43
16 -78 34 -78 41 0 7 -7 10 -15 7 -15 -6 -184 61 -407 162 -171 76 -618 296
-618 303 0 7 266 -5 425 -19 747 -67 1490 -267 2248 -604 l57 -26 0 139 0 139
-177 71 c-648 256 -1199 395 -1873 472 -155 18 -256 22 -617 25 l-431 3 -119
69 c-168 98 -213 126 -213 132 0 3 12 13 28 22 63 38 202 203 202 242 1 35 31
43 284 71 234 26 420 35 705 36 150 0 275 -1 276 -3 2 -2 -6 -30 -18 -63 -15
-44 -21 -85 -21 -155 -1 -86 2 -99 26 -141 57 -98 161 -163 284 -178 159 -19
329 31 489 144 66 47 201 183 231 233 10 18 26 32 35 32 58 0 618 -149 822
-219 l88 -30 -3 141 -3 142 -110 33 c-148 45 -517 136 -637 159 -94 17 -98 19
-98 43 0 53 -21 262 -46 469 -14 117 -24 216 -21 218 13 13 525 -65 770 -117
76 -16 140 -29 142 -29 3 0 5 63 5 139 0 124 -2 140 -18 145 -93 27 -516 88
-760 110 -90 8 -165 16 -167 18 -3 3 -65 668 -65 696 0 28 698 4 968 -34 l42
-6 0 144 0 145 -62 6 c-178 18 -539 27 -743 19 -121 -5 -222 -5 -225 -1 -3 5
-18 145 -34 311 -15 167 -40 420 -56 563 -16 143 -32 287 -35 320 -11 106 -11
105 -55 105 -40 0 -40 0 -40 -40 0 -33 77 -859 109 -1170 7 -61 7 -96 1 -100
-6 -4 -70 -12 -143 -19 -557 -51 -1217 -209 -1811 -432 l-129 -49 -35 26
c-156 120 -207 184 -268 341 -21 54 -42 104 -47 111 -8 10 -42 9 -55 -3 -2 -1
22 -130 53 -285 58 -298 61 -320 45 -320 -16 0 -327 -144 -525 -242 -237 -119
-484 -254 -729 -400 -109 -65 -202 -118 -206 -118 -4 0 -113 72 -241 159 -129
87 -331 222 -449 299 -208 135 -215 141 -218 175 -2 22 5 52 18 76 28 55 12
52 -39 -9 -23 -27 -46 -50 -51 -50 -5 0 -74 40 -152 88 -205 127 -642 387
-785 467 -68 38 -123 72 -123 76 0 3 7 12 15 19 21 18 19 54 -6 76 -29 27
-103 24 -131 -4 l-21 -21 -80 44 c-59 32 -83 51 -93 73 -16 39 -48 56 -90 49
-29 -5 -80 17 -346 147 -1001 488 -1954 796 -2858 922 -194 28 -195 28 -215
58 -41 62 -145 71 -219 21 -36 -24 -38 -24 -159 -15 -67 5 -218 13 -335 16
l-213 7 -31 44 c-27 37 -36 43 -69 43 -24 0 -39 -5 -43 -16z m146 -161 c31
-33 55 -79 59 -113 l4 -25 -108 -3 -108 -3 6 53 c14 126 9 118 69 118 44 0 56
-4 78 -27z m397 17 c108 -6 206 -13 219 -16 25 -5 24 -11 -7 -109 l-16 -50
-85 4 c-47 2 -157 7 -245 10 l-159 6 -8 42 c-3 22 -16 60 -28 82 l-20 41 76 0
c42 0 165 -5 273 -10z m726 -71 c404 -55 797 -142 1234 -272 l175 -51 -44 -13
c-48 -14 -75 -35 -96 -75 l-14 -26 -62 19 c-35 10 -137 38 -228 62 -162 43
-164 44 -172 75 -5 17 -18 38 -30 47 -32 22 -103 19 -149 -7 l-38 -21 -113 22
c-62 12 -123 24 -135 26 -14 3 -23 13 -23 24 0 11 -12 29 -27 41 -35 28 -106
24 -151 -8 -17 -12 -36 -20 -44 -17 -17 6 -310 41 -463 55 -66 7 -121 13 -122
14 -3 3 27 109 32 114 1 2 19 -7 39 -19 50 -29 140 -24 191 12 22 16 45 24 62
22 16 -1 96 -12 178 -24z m-1061 -176 c-4 -16 -16 -52 -26 -80 l-19 -53 -94 0
-93 0 5 68 c2 37 6 73 8 80 3 9 35 12 115 12 l110 0 -6 -27z m349 20 c75 -3
141 -9 148 -13 8 -6 5 -27 -13 -81 -22 -66 -28 -74 -49 -72 -13 1 -122 5 -242
8 -157 5 -217 10 -213 19 3 6 17 41 32 79 l28 67 86 0 c48 0 148 -3 223 -7z
m388 -28 c152 -15 381 -44 386 -49 8 -8 -58 -142 -71 -144 -8 -2 -73 4 -143
12 -70 8 -194 21 -275 27 -82 7 -148 15 -148 19 0 6 28 91 45 138 6 15 20 15
206 -3z m749 -106 c63 -12 116 -23 118 -24 3 -2 -47 -135 -54 -144 -1 -1 -85
11 -186 28 -101 16 -204 33 -230 37 -27 3 -48 8 -48 9 0 2 9 24 20 50 18 42
21 45 36 31 36 -37 126 -33 177 8 18 14 37 25 42 26 6 0 62 -9 125 -21z m655
-154 c77 -21 143 -41 148 -44 11 -11 -39 -136 -55 -135 -7 1 -123 29 -258 62
-135 34 -281 69 -326 79 l-81 18 19 44 c18 44 18 44 39 25 33 -30 115 -26 165
7 l39 26 85 -23 c47 -12 148 -39 225 -59z m625 18 c192 -68 388 -144 592 -230
l157 -67 -23 -26 c-12 -15 -28 -41 -35 -59 -8 -17 -17 -31 -21 -31 -4 0 -40
14 -81 31 -41 17 -84 35 -96 39 -22 9 -22 10 -6 39 49 85 -83 135 -155 58
l-23 -24 -152 57 c-84 31 -210 76 -281 100 -125 41 -128 43 -103 57 44 23 63
83 35 112 -17 17 -7 14 192 -56z m-2331 41 c3 -2 -6 -39 -20 -82 -23 -71 -27
-77 -52 -76 -15 0 -169 1 -343 2 l-315 2 19 25 c11 14 23 45 27 68 14 88 -25
80 348 73 182 -4 333 -9 336 -12z m282 -19 c177 -17 310 -33 316 -39 9 -8 -60
-154 -71 -151 -13 5 -301 31 -443 41 -57 3 -103 8 -103 9 0 6 43 141 47 148 6
11 71 9 254 -8z m424 -50 c72 -9 347 -55 367 -61 14 -4 13 -13 -14 -80 -23
-57 -35 -73 -47 -70 -20 7 -235 40 -359 57 -51 6 -91 15 -90 18 2 4 16 39 32
79 22 54 33 71 45 68 9 -2 39 -7 66 -11z m1400 -110 c198 -64 492 -168 502
-179 9 -8 -41 -126 -53 -126 -7 0 -40 11 -75 24 -58 22 -432 145 -486 161 -20
5 -23 13 -23 56 0 27 -3 49 -8 49 -4 0 -6 -20 -4 -45 2 -25 0 -45 -4 -45 -4 0
-34 7 -66 16 -47 14 -58 20 -53 33 4 9 16 40 27 69 12 28 26 52 32 52 7 0 102
-29 211 -65z m-521 -65 c110 -28 201 -52 203 -53 8 -9 -51 -137 -63 -137 -7 0
-78 16 -156 36 -79 20 -225 53 -326 74 -101 21 -185 40 -188 43 -2 2 5 26 17
53 11 27 25 59 29 70 l9 22 138 -29 c76 -16 228 -51 337 -79z m-750 -65 c88
-14 161 -27 164 -29 4 -5 -46 -125 -58 -139 -4 -4 -49 -1 -101 7 -52 8 -155
22 -229 31 -74 9 -135 17 -136 18 -1 1 12 35 29 76 l31 74 70 -7 c39 -3 143
-17 230 -31z m1050 -15 c63 -20 66 -22 55 -43 -17 -33 -50 -67 -81 -83 -26
-14 -83 -10 -93 7 -3 4 3 29 13 56 10 26 22 56 25 66 8 21 1 21 81 -3z m-679
-50 c193 -40 488 -110 498 -120 5 -4 -2 -38 -15 -74 -21 -62 -25 -67 -48 -62
-14 3 -113 25 -220 49 -107 25 -253 55 -325 67 -71 13 -131 24 -133 25 -1 1
12 34 29 73 21 46 38 72 48 72 9 0 84 -14 166 -30z m1061 -71 c151 -50 274
-92 274 -94 0 -2 -13 -32 -29 -67 l-28 -64 -224 73 c-123 41 -259 83 -301 95
l-78 21 35 38 c19 21 37 50 41 64 3 14 13 25 21 25 8 0 138 -41 289 -91z m456
28 c22 4 60 -6 140 -38 61 -24 112 -49 115 -55 2 -6 -7 -37 -21 -68 l-25 -56
-48 19 c-26 11 -105 41 -175 68 -70 26 -128 52 -128 56 0 5 9 30 21 56 l20 48
36 -18 c23 -12 46 -16 65 -12z m896 -176 c78 -39 142 -74 142 -77 0 -4 -36
-61 -65 -102 -1 -1 -96 42 -211 96 -115 55 -254 119 -309 143 l-100 44 40 6
c50 6 81 23 101 53 l15 24 122 -58 c67 -31 186 -89 265 -129z m-573 129 c3 -5
2 -10 -4 -10 -5 0 -13 5 -16 10 -3 6 -2 10 4 10 5 0 13 -4 16 -10z m-2385 -40
c85 -12 176 -23 203 -27 30 -4 47 -11 47 -19 0 -8 -7 -14 -16 -14 -16 0 -401
66 -434 74 -45 11 65 3 200 -14z m1400 -86 c137 -42 393 -125 399 -130 2 -2
-9 -33 -24 -69 -25 -57 -31 -64 -49 -59 -244 79 -407 127 -659 196 l-49 13 32
43 c17 23 44 51 61 61 35 22 42 20 289 -55z m1081 17 c122 -54 400 -182 491
-226 l36 -18 -30 -49 c-17 -27 -36 -52 -42 -54 -6 -2 -87 31 -181 74 -93 44
-236 107 -318 142 -129 55 -147 65 -141 82 8 27 44 108 48 108 1 0 63 -27 137
-59z m-415 -36 c93 -36 172 -69 177 -74 4 -4 -5 -35 -20 -68 l-28 -60 -175 65
c-96 36 -176 66 -177 67 -3 1 49 135 52 135 1 0 78 -29 171 -65z m413 -169
c156 -66 412 -181 429 -192 2 -1 -13 -27 -33 -58 l-36 -56 -32 14 c-280 121
-437 189 -504 216 -46 19 -83 38 -83 44 0 20 44 116 53 116 5 0 98 -38 206
-84z m-476 -16 c92 -34 167 -65 167 -68 0 -22 -27 -72 -38 -72 -23 0 -294 50
-333 62 l-37 11 14 33 c8 19 21 50 29 70 8 19 18 33 22 31 5 -3 83 -33 176
-67z m1132 30 c22 -8 39 -7 75 6 l46 17 80 -43 c43 -24 80 -44 82 -46 5 -3
-62 -104 -69 -104 -3 0 -72 34 -153 76 l-146 76 17 29 c15 25 19 27 29 15 6
-8 23 -20 39 -26z m185 -218 c0 -11 -58 -102 -65 -102 -3 0 -73 34 -155 75
l-150 75 36 55 36 54 149 -75 c82 -41 149 -78 149 -82z m130 113 c10 -9 35
-19 56 -22 22 -3 110 -46 199 -96 88 -50 182 -103 209 -118 l49 -27 -41 -7
c-23 -3 -50 -17 -63 -31 -12 -13 -26 -24 -30 -24 -6 0 -443 235 -458 246 -5 4
49 94 56 94 4 0 14 -7 23 -15z m-1020 -92 c150 -62 370 -159 377 -166 2 -3 -1
-14 -8 -26 -7 -11 -11 -22 -9 -24 15 -12 341 -118 352 -115 7 3 111 -44 231
-104 240 -119 228 -108 170 -176 l-28 -33 -210 101 c-374 181 -662 309 -980
435 -93 37 -173 71 -178 74 -4 4 5 35 19 68 l27 62 51 -20 c28 -11 112 -46
186 -76z m652 -94 c79 -39 144 -72 146 -74 5 -4 -61 -105 -69 -105 -3 0 -73
33 -156 73 l-150 72 34 53 c18 28 38 52 43 52 5 0 74 -32 152 -71z m579 -102
c73 -40 134 -77 136 -82 2 -6 -14 -29 -35 -52 l-37 -42 -227 120 -227 121 35
53 35 53 93 -49 c52 -27 153 -82 227 -122z m5880 -142 c15 -154 30 -309 33
-345 l7 -65 -323 -1 c-463 -1 -847 -38 -1264 -124 -53 -11 -102 -20 -110 -20
-7 0 -18 19 -24 43 -39 162 -106 274 -225 378 -34 29 -51 51 -43 53 7 3 63 20
123 40 336 108 730 201 1075 255 235 37 553 70 660 67 l65 -1 26 -280z m-6063
45 c122 -63 222 -117 222 -120 -1 -3 -19 -25 -41 -50 l-39 -45 -218 110 c-119
61 -219 111 -220 112 -6 3 62 113 68 111 3 -2 106 -55 228 -118z m873 -112
c148 -89 269 -165 269 -168 0 -4 -16 -25 -36 -48 l-35 -42 -52 33 c-29 18
-150 91 -270 161 l-217 128 32 22 c24 16 33 30 33 49 -1 15 1 27 3 27 3 0 125
-73 273 -162z m-121 -115 c146 -85 270 -160 277 -167 9 -8 4 -21 -23 -54 l-36
-42 -34 30 c-19 16 -42 30 -52 30 -9 0 -147 74 -306 165 -159 91 -293 165
-298 165 -15 0 -8 17 28 62 l35 46 72 -40 c40 -23 191 -110 337 -195z m-234
-54 c148 -84 271 -153 273 -155 2 -2 -4 -13 -13 -23 -38 -42 17 -101 93 -101
26 0 56 6 67 14 18 13 28 9 104 -37 137 -82 395 -240 400 -244 3 -3 -12 -20
-32 -38 -21 -17 -38 -36 -38 -41 0 -4 18 9 39 30 22 21 43 37 48 35 5 -2 62
-37 127 -78 l118 -74 -40 -40 -40 -40 -219 135 c-284 177 -492 298 -853 498
-162 89 -316 175 -343 190 l-47 26 36 47 c20 26 40 47 43 47 4 0 128 -68 277
-151z m3495 60 c75 -40 167 -124 213 -194 39 -59 90 -181 83 -199 -3 -7 -40
-20 -83 -30 -44 -10 -153 -38 -242 -63 -90 -24 -166 -43 -168 -40 -11 11 -95
470 -87 477 11 10 194 79 212 80 7 0 40 -14 72 -31z m-3371 -319 c225 -124
604 -345 670 -389 12 -9 8 -17 -24 -50 l-40 -41 -35 21 c-243 145 -786 444
-1058 584 -51 26 -93 51 -93 57 0 5 16 29 35 53 l36 43 117 -63 c64 -34 241
-131 392 -215z m550 230 c14 -14 20 -33 20 -62 0 -68 -10 -75 -64 -43 -25 15
-49 31 -52 36 -5 9 55 89 69 89 4 0 16 -9 27 -20z m2515 -223 c26 -131 45
-239 43 -241 -1 -1 -75 -25 -163 -55 -279 -92 -574 -207 -828 -322 -72 -32
-138 -59 -145 -59 -8 0 5 23 33 55 25 30 43 55 38 55 -5 0 -26 -20 -46 -45
-21 -25 -42 -45 -47 -45 -7 0 -294 191 -313 210 -18 16 626 356 963 508 145
66 414 181 417 178 1 -1 23 -108 48 -239z m-2135 -21 c293 -192 515 -341 534
-357 5 -4 -13 -21 -39 -37 l-48 -30 -32 21 -33 21 24 19 c31 24 30 51 -2 76
-33 26 -67 27 -108 2 l-31 -19 -69 45 -68 44 21 20 c25 24 27 46 4 71 -20 23
-90 24 -121 2 -21 -14 -29 -11 -174 84 -84 54 -167 107 -184 117 -31 18 -31
19 -18 51 8 18 14 45 14 59 0 18 4 24 13 19 6 -4 149 -98 317 -208z m-456 111
l56 -34 -23 -20 c-12 -11 -36 -27 -52 -36 -28 -14 -33 -14 -72 10 l-43 25 37
44 c21 24 38 44 40 44 1 0 27 -15 57 -33z m252 -158 c96 -61 176 -114 179
-118 2 -4 -13 -24 -34 -45 l-38 -37 -149 94 c-82 51 -170 106 -197 121 l-47
28 52 33 c29 18 54 33 56 34 2 1 82 -49 178 -110z m4699 -108 l60 -6 21 -215
c12 -118 20 -216 19 -218 -1 -1 -22 7 -47 17 -185 83 -443 29 -664 -137 l-79
-59 -360 -6 c-406 -6 -657 -28 -970 -83 -104 -18 -105 -18 -105 9 0 12 -20
123 -45 246 -25 123 -44 225 -43 227 5 4 318 81 383 94 33 6 69 14 79 17 18 5
19 1 13 -68 -3 -41 -18 -129 -33 -197 -27 -124 -26 -154 5 -116 19 24 77 247
87 337 6 47 10 58 28 62 201 43 643 94 936 109 99 5 638 -5 715 -13z m-4432
-66 c15 -9 61 -38 102 -64 l74 -48 -38 -37 c-20 -20 -40 -36 -44 -36 -5 0
-212 129 -236 147 -3 2 13 21 34 43 36 37 40 39 59 25 12 -8 34 -22 49 -30z
m273 -176 l77 -51 -47 -29 c-25 -16 -49 -29 -53 -29 -10 0 -133 81 -133 88 0
9 63 72 71 72 4 0 42 -23 85 -51z m-509 -31 c29 -18 52 -37 49 -43 -2 -5 5
-27 16 -48 11 -22 18 -40 16 -42 -2 -1 -45 25 -96 58 l-93 60 22 23 c12 13 25
24 28 24 3 0 29 -14 58 -32z m2426 -160 c21 -106 37 -196 37 -200 0 -4 -15 -2
-32 3 -52 14 -138 10 -204 -10 -81 -24 -160 -78 -232 -156 -47 -52 -67 -66
-112 -79 -29 -9 -61 -16 -70 -16 -20 0 -320 195 -320 208 0 4 5 13 12 20 15
15 3 16 -20 1 -15 -10 -28 -5 -71 24 l-53 37 58 25 c83 37 458 176 604 224
114 37 347 109 361 110 3 1 22 -86 42 -191z m-7013 157 c226 -14 501 -37 628
-52 l52 -6 0 -61 0 -61 -117 12 c-65 6 -175 15 -245 19 l-128 7 -17 36 c-16
33 -22 36 -63 39 -38 2 -53 -2 -88 -28 l-42 -30 -327 -1 c-181 0 -415 -6 -521
-12 -107 -7 -196 -10 -198 -8 -2 2 -4 19 -4 37 l0 34 45 -7 c36 -4 55 -1 99
21 30 15 61 38 70 51 l16 25 298 0 c163 0 407 -7 542 -15z m-1096 -51 c8 -62
8 -104 -2 -104 -14 0 -348 -39 -388 -45 -41 -7 -41 -7 -36 23 6 45 -13 72 -51
72 -63 0 -95 -48 -67 -100 9 -17 6 -20 -25 -26 -31 -6 -40 -2 -78 33 -48 44
-107 70 -182 81 -46 7 -39 9 115 34 198 33 537 72 656 76 l51 2 7 -46z m1826
36 c8 -5 11 -10 5 -10 -5 0 -17 5 -25 10 -8 5 -10 10 -5 10 6 0 17 -5 25 -10z
m4297 -87 c2 -4 -17 -21 -42 -36 l-45 -29 -43 26 c-78 47 -76 41 -33 85 l39
40 61 -39 c33 -21 62 -42 63 -47z m438 60 c22 -14 95 -64 163 -111 117 -79
123 -85 107 -102 -9 -10 -29 -23 -45 -30 -27 -11 -37 -6 -194 99 -91 61 -166
113 -166 116 0 4 82 55 90 55 3 0 23 -12 45 -27z m-709 -59 c16 -11 22 -20 15
-27 -11 -11 -76 34 -85 60 -7 17 -12 19 70 -33z m-3817 11 c503 -67 992 -162
1526 -297 132 -33 242 -62 243 -63 2 -2 -6 -13 -17 -24 -11 -11 -23 -32 -27
-46 -3 -14 -9 -25 -13 -25 -3 0 -45 10 -93 22 -68 17 -89 27 -97 45 -13 29
-55 39 -97 24 -30 -11 -55 -7 -206 27 -95 22 -208 47 -250 57 l-78 16 0 39 c0
76 -76 91 -141 27 l-32 -32 -248 41 c-137 23 -316 50 -399 60 l-151 19 -24 54
c-14 30 -28 52 -30 49 -3 -3 3 -25 14 -49 11 -24 18 -45 17 -47 -2 -1 -33 0
-70 4 l-66 7 0 58 c0 71 -19 69 239 34z m4518 -116 l167 -112 -35 -17 c-58
-30 -101 -15 -257 85 -78 50 -141 92 -141 95 -1 6 81 60 92 60 4 0 82 -50 174
-111z m-582 29 c10 -9 -67 16 -86 27 -5 4 -7 11 -3 16 5 9 62 -19 89 -43z
m-6823 -11 c34 -20 85 -75 77 -81 -2 -1 -78 -21 -169 -43 -91 -23 -173 -44
-182 -48 -15 -6 -18 -2 -18 24 0 119 186 213 292 148z m1463 -22 c-15 -19 -29
-52 -32 -73 l-5 -40 -122 -6 c-66 -4 -184 -14 -260 -22 -112 -11 -141 -12
-148 -2 -4 7 -8 43 -8 79 l0 66 93 8 c123 10 334 22 430 23 l78 2 -26 -35z
m445 18 c0 -10 -3 -42 -6 -70 l-7 -53 -139 0 -139 0 16 30 c18 34 19 64 5 91
-10 18 -6 19 130 19 127 0 140 -2 140 -17z m5327 -73 c128 -84 138 -92 138
-121 0 -24 -7 -34 -27 -45 -27 -14 -32 -11 -185 87 -87 56 -159 102 -161 104
-2 2 89 65 95 65 1 0 64 -41 140 -90z m-4887 65 c107 -8 214 -17 238 -20 l42
-6 0 -62 0 -63 -92 8 c-121 9 -497 28 -565 28 -45 0 -53 3 -53 19 0 16 6 17
49 13 58 -5 103 17 136 67 11 17 27 31 35 31 8 0 103 -7 210 -15z m-1480 -93
l0 -77 -157 -23 c-87 -13 -170 -26 -185 -29 -19 -4 -28 -1 -28 8 0 22 -32 49
-58 49 -32 0 -72 -36 -72 -66 0 -14 -8 -24 -22 -28 -40 -10 -44 -7 -47 43 -1
27 -6 64 -11 82 -5 18 -8 35 -5 37 12 12 461 79 543 81 l42 1 0 -78z m1923 48
c10 -9 -7 -78 -25 -103 -11 -14 -23 -16 -65 -11 l-53 7 0 64 0 64 68 -7 c37
-4 71 -10 75 -14z m342 -41 c116 -17 266 -40 335 -52 l125 -22 -4 -55 c-1 -30
-4 -57 -6 -58 -2 -2 -51 4 -108 13 l-105 18 5 37 c7 47 -22 80 -69 80 -24 0
-41 -10 -75 -45 l-43 -45 -155 20 c-86 11 -168 20 -183 20 -46 0 -50 9 -38 73
l11 58 50 -6 c27 -4 145 -20 260 -36z m3865 -41 c24 -11 64 -35 87 -54 42 -35
98 -115 91 -132 -2 -8 -284 161 -306 183 -4 4 2 13 12 21 21 15 47 11 116 -18z
m920 -55 c30 -20 57 -39 60 -40 2 -2 -12 -20 -32 -39 l-35 -36 -82 55 -82 54
48 21 c26 12 52 21 58 22 5 0 35 -17 65 -37z m-994 -30 c51 -32 91 -59 90 -61
-13 -13 -219 95 -210 110 10 15 26 8 120 -49z m-5026 -27 l0 -73 -197 -7
c-109 -4 -213 -9 -230 -12 l-33 -6 0 82 0 83 33 -5 c17 -3 52 -2 77 2 25 4
114 8 198 9 l152 1 0 -74z m350 64 c107 -5 237 -13 288 -16 l92 -7 0 -70 0
-70 -47 6 c-27 4 -186 10 -355 13 l-308 7 0 74 0 73 68 0 c37 0 155 -5 262
-10z m-830 -79 l0 -79 -67 -7 c-103 -10 -395 -46 -419 -51 -20 -5 -22 -1 -29
76 -4 45 -5 84 -2 87 5 5 318 39 427 46 30 2 63 4 73 5 15 2 17 -8 17 -77z
m2617 3 c115 -25 211 -48 214 -50 10 -6 -24 -104 -36 -104 -7 0 -81 15 -166
34 -85 19 -218 47 -296 62 -143 26 -143 27 -143 54 0 26 2 27 43 23 33 -4 47
-1 67 16 32 27 46 26 317 -35z m3238 -14 c5 -7 -53 -37 -58 -29 -2 3 -34 69
-45 92 -5 10 96 -51 103 -63z m-4590 50 c-27 -12 -35 -12 -35 0 0 6 12 10 28
9 24 0 25 -1 7 -9z m4128 -132 l66 -141 -181 -109 c-100 -60 -212 -129 -250
-153 l-68 -45 -120 47 -120 46 21 28 c11 15 29 48 39 72 18 40 41 59 237 194
265 182 296 203 304 203 3 0 36 -64 72 -142z m987 79 c41 -28 77 -52 79 -54 2
-1 -13 -18 -35 -37 l-38 -33 -98 65 c-54 36 -98 68 -98 71 1 10 94 48 105 43
6 -3 44 -28 85 -55z m-4757 27 l147 -17 0 -64 c0 -44 -4 -63 -12 -63 -19 0
-437 40 -475 46 -18 3 -33 9 -33 14 0 4 19 32 41 60 l42 53 71 -6 c39 -3 137
-13 219 -23z m-2161 -79 c3 -79 2 -80 -22 -83 -59 -7 -424 -84 -523 -111 -94
-26 -108 -28 -101 -13 4 9 21 55 37 102 16 47 34 88 40 92 25 16 548 108 559
99 3 -3 8 -42 10 -86z m7270 -18 c76 -49 136 -92 133 -96 -2 -4 -29 -13 -59
-21 l-54 -13 -119 78 c-65 42 -120 79 -122 81 -9 8 62 73 73 67 6 -4 73 -47
148 -96z m-482 -8 c107 -69 110 -72 93 -91 -17 -18 -17 -18 -29 3 -23 43 -87
61 -137 38 -21 -10 -32 -6 -81 26 -31 21 -56 39 -56 41 0 3 89 52 97 54 1 0
52 -32 113 -71z m-4212 46 c141 -23 132 -17 132 -86 0 -46 -3 -59 -15 -59 -9
0 -70 9 -138 19 -67 11 -146 22 -174 26 l-53 7 0 43 0 44 34 -6 c21 -3 44 1
62 11 36 19 34 19 152 1z m1602 -69 c325 -99 860 -280 860 -291 0 -2 -17 -9
-37 -15 -21 -7 -48 -21 -60 -32 -12 -11 -27 -17 -33 -13 -6 4 -110 40 -232 81
-122 41 -229 79 -239 85 -10 5 -25 31 -32 57 -11 35 -19 48 -35 50 -26 4 -26
5 -7 -47 8 -22 11 -41 7 -41 -4 0 -79 22 -167 49 -88 27 -204 61 -257 76 l-98
28 25 29 c14 16 25 38 25 49 0 15 5 19 18 15 9 -3 127 -39 262 -80z m-1150
-17 c140 -28 268 -54 283 -57 23 -4 28 -9 23 -26 -2 -11 -8 -38 -11 -58 -4
-21 -9 -38 -11 -38 -2 0 -115 22 -251 49 -137 27 -270 53 -297 57 l-48 7 6 36
c3 20 6 48 6 64 0 23 3 27 23 22 12 -2 137 -28 277 -56z m677 -3 c3 -2 2 -28
-2 -56 -6 -47 -9 -51 -29 -46 -11 3 -87 22 -168 42 -115 28 -145 39 -141 51 4
10 9 11 16 4 26 -26 116 -1 137 38 10 19 12 19 96 -4 47 -13 88 -26 91 -29z
m3432 -21 c65 -42 108 -76 100 -79 -8 -2 -35 -11 -60 -19 l-46 -15 -97 62 -96
62 32 32 c18 17 37 32 43 32 5 0 61 -34 124 -75z m-985 37 l38 -7 -75 -42
c-41 -24 -79 -43 -84 -43 -7 0 -63 101 -63 113 0 4 131 -11 184 -21z m460 -26
c46 -30 87 -60 91 -67 4 -6 24 -19 44 -28 48 -22 171 -95 171 -101 0 -7 -93
-40 -111 -40 -7 0 -97 53 -201 117 l-188 118 53 27 c28 15 53 27 54 28 1 0 40
-25 87 -54z m-5604 -44 l0 -78 -182 -13 c-101 -7 -204 -15 -230 -18 l-48 -6 0
82 c0 56 4 83 13 86 10 3 234 16 410 23 l37 2 0 -78z m539 68 c166 -8 196 -12
207 -27 13 -17 13 -17 14 0 0 16 7 17 68 12 188 -17 467 -46 470 -50 2 -2 1
-33 -3 -69 -7 -60 -9 -65 -29 -61 -113 26 -801 60 -1058 52 l-188 -5 0 72 c0
40 3 76 7 79 9 10 288 8 512 -3z m-1017 -92 c-2 -40 -5 -78 -7 -83 -1 -6 -52
-17 -111 -24 -428 -51 -950 -187 -1382 -360 l-52 -21 133 133 c74 72 143 145
154 160 16 25 39 34 159 68 142 41 452 113 536 124 l47 7 3 -41 c2 -23 8 -41
13 -41 6 0 9 20 7 44 l-3 43 113 18 c122 19 314 42 363 44 l31 1 -4 -72z
m3272 56 c80 -20 509 -145 519 -151 4 -3 -4 -14 -18 -25 -15 -11 -30 -31 -35
-44 l-9 -23 -68 20 c-206 60 -458 129 -470 129 -7 0 -13 5 -13 11 0 18 22 99
27 99 3 0 33 -7 67 -16z m1453 -36 c13 -12 23 -24 23 -28 0 -7 -84 -70 -93
-70 -3 0 3 27 15 60 11 33 23 60 26 60 3 0 16 -10 29 -22z m1795 -67 c16 -9
28 -19 28 -23 0 -7 -86 -38 -107 -38 -11 0 -112 58 -131 75 -2 2 13 19 34 38
l38 35 56 -36 c30 -19 67 -43 82 -51z m-662 42 c42 -48 66 -102 80 -184 20
-116 22 -113 -120 -175 -111 -50 -125 -54 -136 -39 -17 23 -137 285 -133 290
6 5 263 143 270 144 4 1 22 -16 39 -36z m-3883 7 c76 -11 152 -22 168 -25 l30
-5 -3 -65 -4 -66 -31 6 c-39 7 -326 45 -338 45 -5 0 -9 29 -9 65 0 78 -14 74
187 45z m4188 -151 l66 -42 -117 -48 c-162 -67 -151 -65 -146 -25 6 49 -23
177 -53 236 l-26 50 105 -64 c58 -36 134 -84 171 -107z m-3208 131 c70 -17
144 -35 164 -40 l36 -10 -10 -55 c-6 -30 -15 -55 -21 -55 -10 0 -318 71 -323
75 -3 2 20 115 23 115 2 0 60 -14 131 -30z m-667 -30 c92 -15 474 -91 480 -95
12 -7 -14 -115 -27 -115 -7 0 -109 18 -226 39 -116 22 -237 44 -267 48 l-55 8
-3 68 c-3 62 -1 68 15 63 10 -3 47 -10 83 -16z m1019 -61 c181 -48 395 -111
402 -118 4 -3 0 -28 -8 -55 -12 -41 -17 -47 -36 -43 -12 2 -114 30 -227 60
-113 31 -225 61 -248 67 -44 11 -44 11 -37 48 10 57 15 72 27 72 6 0 63 -14
127 -31z m3691 -19 c0 -17 -3 -18 -25 -8 -19 8 -22 14 -13 20 22 14 38 9 38
-12z m-6528 -53 l-4 -63 -206 -38 c-114 -21 -218 -40 -231 -43 l-24 -6 6 88
c3 48 8 89 9 90 6 6 305 32 378 34 l75 1 -3 -63z m4292 31 c-3 -13 -15 -36
-26 -51 -15 -21 -25 -26 -41 -21 -40 12 -39 21 10 57 57 42 67 45 57 15z m860
-216 c7 -20 4 -22 -26 -22 -46 -1 -109 -31 -160 -78 l-43 -39 -147 61 c-82 34
-147 65 -145 70 2 5 95 62 207 126 l205 118 51 -107 c28 -59 55 -117 58 -129z
m1336 198 c26 -16 61 -48 79 -70 31 -39 71 -65 121 -81 l25 -7 -25 -1 c-14 -1
-36 -7 -50 -14 -22 -12 -31 -9 -83 22 -43 25 -56 38 -51 50 15 37 15 49 -1 65
-19 18 -63 21 -98 5 -19 -9 -31 -7 -58 7 l-34 17 40 18 c56 26 81 23 135 -11z
m-4002 -16 c87 -20 158 -38 160 -39 6 -5 -9 -91 -18 -104 -6 -10 -43 -5 -166
23 -87 20 -160 38 -162 41 -5 5 18 115 25 115 3 0 75 -16 161 -36z m-966 3
c92 -13 170 -26 174 -29 3 -4 2 -24 -3 -45 l-9 -38 -169 -32 c-94 -17 -178
-32 -187 -32 -15 -1 -18 8 -18 62 0 92 10 137 29 137 9 0 91 -11 183 -23z
m2154 -28 c82 -28 168 -58 192 -66 l42 -15 -44 -34 c-25 -19 -50 -34 -56 -34
-7 0 -83 23 -170 51 -130 42 -159 55 -164 72 -3 12 1 28 9 37 8 9 15 22 15 28
0 19 19 15 176 -39z m2629 4 c25 -16 45 -30 45 -33 0 -4 -15 -20 -33 -38 l-32
-31 -75 44 c-79 47 -80 45 2 70 24 8 44 14 45 14 1 1 23 -11 48 -26z m-3460
-68 c149 -39 348 -95 353 -100 5 -5 -20 -95 -29 -101 -5 -2 -75 13 -156 35
-81 22 -197 52 -256 67 l-109 27 7 45 c9 62 15 73 34 68 9 -3 79 -21 156 -41z
m604 -21 c8 -9 41 -101 41 -114 0 -4 -55 10 -122 30 l-123 37 2 31 c2 17 7 42
12 55 l10 25 86 -27 c47 -16 90 -32 94 -37z m744 49 c9 -3 17 -10 17 -15 0 -5
6 -8 13 -6 7 2 63 -17 125 -41 l112 -44 -42 -29 c-24 -15 -46 -28 -49 -28 -3
0 -16 23 -29 50 -22 47 -42 62 -55 40 -3 -5 1 -23 10 -41 19 -37 16 -43 -16
-30 -13 6 -61 24 -106 41 l-83 31 16 32 c25 48 36 59 53 51 9 -3 24 -9 34 -11z
m1986 -41 l80 -48 -36 -36 -35 -36 -109 66 c-60 36 -108 66 -106 68 8 9 84 33
104 33 12 1 58 -21 102 -47z m253 -12 c31 0 135 -64 174 -106 20 -21 41 -34
57 -34 14 0 58 -19 99 -42 l73 -43 -75 -11 -75 -12 -70 41 c-38 22 -72 42 -74
44 -3 2 8 16 22 31 39 41 33 52 -7 13 l-34 -33 -64 37 c-35 21 -85 51 -111 68
l-48 30 31 32 32 33 23 -24 c13 -13 34 -24 47 -24z m-391 -61 l121 -72 -56
-56 c-31 -31 -56 -60 -56 -63 0 -4 32 -26 71 -50 40 -23 68 -43 63 -45 -46
-14 -240 -61 -242 -58 -2 2 22 42 54 89 31 47 55 88 52 91 -3 3 -35 -40 -71
-94 -61 -92 -70 -101 -109 -111 -24 -7 -85 -25 -136 -42 -106 -34 -117 -35
-155 -20 l-27 12 66 100 c37 55 65 102 63 105 -3 2 -34 -39 -69 -91 -36 -53
-67 -97 -71 -100 -5 -3 -296 120 -305 129 -2 1 3 21 9 44 l11 42 130 55 c274
116 476 190 476 175 0 -6 12 -1 28 10 15 11 28 21 30 21 2 0 57 -32 123 -71z
m963 27 c39 -24 111 -67 159 -94 l88 -50 -38 -6 c-103 -16 -111 -14 -255 70
-76 43 -137 81 -138 84 0 4 81 35 104 39 4 0 40 -19 80 -43z m-4489 -29 l60
-15 -152 -1 -152 -1 10 32 c5 18 9 34 9 34 0 2 138 -28 225 -49z m1129 10
l129 -43 -53 -39 -52 -38 -62 19 -61 20 -22 62 c-12 34 -19 62 -15 62 4 0 66
-19 136 -43z m3246 -59 c77 -45 138 -84 136 -86 -2 -2 -33 -7 -69 -12 l-66
-10 -78 46 c-94 56 -89 52 -75 66 17 17 15 49 -5 64 -17 13 -17 13 0 14 10 0
81 -37 157 -82z m-2711 21 c75 -28 137 -52 139 -53 1 -2 -21 -17 -50 -35 l-52
-33 -148 54 -149 53 32 27 c28 24 45 31 83 37 5 0 71 -22 145 -50z m2199 -16
c53 -31 101 -60 106 -65 11 -9 -41 -68 -59 -68 -6 0 -59 28 -118 63 l-106 63
32 32 c17 18 35 32 40 32 5 0 52 -26 105 -57z m-3001 -18 l132 -38 16 -45 c19
-57 19 -72 0 -72 -16 0 -325 87 -331 93 -8 8 29 108 39 104 7 -2 71 -21 144
-42z m1531 -111 c10 -6 -31 -64 -49 -69 -28 -9 -72 11 -84 38 -8 18 -18 22
-55 22 -28 1 -82 15 -143 40 l-98 39 52 32 52 31 161 -65 c88 -36 162 -67 164
-68z m-876 50 c76 -27 138 -52 138 -55 0 -4 -22 -21 -48 -38 l-48 -31 -140 46
c-76 26 -143 50 -147 54 -10 8 83 81 98 76 6 -1 72 -25 147 -52z m2291 -41
c73 -42 77 -46 62 -63 -9 -10 -39 -22 -68 -28 -52 -10 -52 -10 -134 40 -46 27
-83 52 -83 56 0 3 17 23 37 44 l37 38 35 -21 c20 -12 71 -42 114 -66z m-2723
34 l31 -14 -25 -17 c-26 -16 -26 -16 -36 9 -16 41 -16 41 30 22z m946 -38
l102 -40 -24 -44 -25 -43 -67 27 c-57 23 -71 34 -90 70 -22 38 -24 71 -5 71 4
0 54 -18 109 -41z m2028 8 l56 -34 -68 -12 c-54 -10 -74 -10 -95 0 -15 7 -27
16 -27 20 0 9 59 59 70 59 5 0 34 -15 64 -33z m-2174 -48 c0 -5 -14 -3 -32 3
-29 10 -30 12 -12 25 16 12 20 11 31 -4 7 -9 13 -20 13 -24z m-510 -17 l145
-49 -57 -37 -56 -37 -146 47 c-81 25 -145 48 -144 49 19 19 95 74 103 74 6 1
76 -21 155 -47z m470 -16 c62 -22 66 -26 98 -85 19 -34 32 -64 29 -67 -2 -2
-21 3 -43 12 -21 9 -88 33 -148 54 l-109 37 54 37 c29 20 54 36 54 36 0 0 29
-11 65 -24z m2070 14 c0 -5 -9 -10 -21 -10 -11 0 -17 5 -14 10 3 6 13 10 21
10 8 0 14 -4 14 -10z m-1661 -61 c-48 -26 -59 -23 -24 5 16 13 36 21 44 18 9
-3 3 -11 -20 -23z m-129 7 c0 -3 -4 -8 -10 -11 -5 -3 -10 -1 -10 4 0 6 5 11
10 11 6 0 10 -2 10 -4z m-70 -48 c0 -5 -8 -20 -17 -34 l-17 -26 -22 44 c-13
23 -23 46 -24 50 0 3 18 -1 40 -9 22 -9 40 -20 40 -25z m-956 -85 l38 -116
-28 -21 c-179 -133 -1131 -763 -1139 -754 -4 4 -75 168 -75 173 0 2 96 70 213
151 200 139 686 490 862 623 44 33 82 61 85 61 3 0 23 -53 44 -117z m130 82
c61 -20 117 -38 124 -40 8 -3 -30 -34 -83 -71 -53 -36 -98 -64 -100 -62 -3 4
-65 196 -65 203 0 8 10 6 124 -30z m4024 -63 c109 -55 264 -130 346 -168 96
-45 141 -70 128 -72 -12 -2 -30 -14 -40 -26 l-18 -23 -99 44 c-152 67 -665
324 -665 333 0 4 34 8 76 9 l76 2 196 -99z m-2455 49 c51 -22 118 -51 150 -65
l58 -26 -21 -30 c-13 -18 -30 -30 -43 -30 -12 0 -76 23 -142 51 -66 28 -130
55 -143 60 l-23 9 26 27 c14 15 25 31 25 35 0 14 20 9 113 -31z m2062 24 c19
-15 19 -16 -12 -47 l-31 -31 -69 38 c-37 20 -72 41 -77 46 -18 16 167 10 189
-6z m-3074 -46 c79 -28 155 -56 169 -61 23 -9 22 -10 -35 -42 l-59 -34 -155
54 c-86 30 -162 57 -170 59 -9 4 6 18 40 40 30 19 57 35 60 35 3 0 70 -23 150
-51z m2906 -1 c57 -29 103 -56 103 -60 0 -4 -12 -21 -27 -38 l-28 -30 -129 70
c-152 82 -158 86 -125 99 55 22 101 13 206 -41z m-292 20 c31 -14 31 -15 -4
-56 l-29 -34 -78 44 -79 43 45 6 c77 10 118 9 145 -3z m-2295 -13 c0 -2 -10
-9 -22 -15 -22 -11 -22 -10 -4 4 21 17 26 19 26 11z m2105 -52 c-14 -8 -25
-18 -25 -24 0 -35 55 -79 99 -79 11 0 33 11 49 24 l29 25 33 -21 c43 -26 470
-238 612 -304 58 -27 105 -50 104 -51 -1 -1 -60 3 -131 8 -180 13 -658 13
-849 -1 -154 -11 -160 -11 -213 11 l-55 22 29 22 c24 20 26 26 18 51 -21 58
-121 66 -163 14 l-17 -21 -118 55 c-85 40 -116 59 -111 68 4 7 29 45 55 85
l48 71 69 16 c68 15 388 71 447 78 17 2 49 -5 73 -16 l42 -20 -25 -13z m-1835
32 c0 -8 -9 -15 -19 -15 -24 0 -36 16 -19 23 24 10 38 7 38 -8z m2210 -68
l139 -73 -29 -35 -29 -34 -136 70 c-75 39 -139 74 -142 78 -4 7 44 67 54 67 2
0 66 -33 143 -73z m332 34 c27 -6 42 -5 57 5 18 13 33 8 158 -54 76 -38 219
-107 318 -152 99 -45 187 -86 197 -91 14 -7 15 -14 5 -44 -6 -19 -14 -35 -18
-35 -22 0 -584 264 -717 336 -69 38 -81 48 -71 60 10 12 13 12 23 -1 6 -9 28
-20 48 -24z m-2123 -93 c-16 -10 -29 -25 -29 -33 0 -8 -4 -15 -8 -15 -4 0 -68
24 -141 54 -125 50 -132 54 -100 60 19 3 47 14 63 24 30 18 30 18 137 -27
l108 -45 -30 -18z m-475 87 l36 -15 -22 -44 -21 -45 -35 15 c-19 8 -36 14 -37
14 -4 0 15 72 22 83 6 10 16 9 57 -8z m-671 -48 c87 -30 159 -56 161 -58 2 -2
-114 -74 -259 -160 l-263 -156 -41 117 c-23 64 -41 121 -40 126 0 10 258 182
275 183 6 1 81 -23 167 -52z m3197 23 c16 -9 18 -15 9 -37 -18 -49 -27 -54
-64 -36 l-34 16 26 34 c27 36 34 38 63 23z m-2310 -61 c85 -34 159 -65 163
-69 5 -4 -19 -17 -53 -30 l-61 -23 -97 38 c-53 21 -112 44 -130 51 l-33 13 21
41 c11 22 24 40 28 40 4 0 77 -28 162 -61z m505 51 c3 -5 2 -10 -4 -10 -5 0
-18 -3 -28 -7 -16 -6 -16 -5 -4 10 15 19 27 22 36 7z m535 -15 c0 -8 -92 -145
-98 -145 -11 0 -172 75 -172 80 0 5 230 67 258 69 6 1 12 -1 12 -4z m1501 -94
c112 -55 280 -133 374 -175 93 -42 171 -80 173 -85 2 -5 -3 -23 -10 -39 l-13
-31 -60 25 c-143 61 -324 143 -506 231 l-197 95 17 39 c9 21 16 39 17 39 1 0
93 -45 205 -99z m-2932 68 c20 -7 30 -16 27 -24 -3 -8 -8 -30 -12 -50 -8 -44
-22 -41 -52 14 -19 33 -21 45 -12 56 15 18 10 17 49 4z m-79 -70 c0 -5 -14 -3
-32 3 -29 10 -30 12 -12 25 16 12 20 11 31 -4 7 -9 13 -20 13 -24z m223 10 c5
-4 -1 -25 -12 -47 -20 -40 -22 -41 -53 -30 -18 6 -35 12 -36 14 -2 1 5 23 17
48 19 45 21 46 48 34 15 -6 32 -15 36 -19z m2473 3 c-31 -4 -41 2 -32 17 5 7
16 6 34 -2 l27 -12 -29 -3z m-1398 -44 c50 -24 92 -47 92 -53 0 -5 -10 -22
-23 -37 l-22 -27 -137 62 c-75 34 -139 65 -143 69 -4 3 15 9 42 13 26 3 55 8
63 9 8 2 20 4 25 5 6 1 52 -18 103 -41z m-940 -5 c53 -20 100 -39 104 -42 4
-4 -20 -17 -53 -31 l-61 -24 -69 24 c-38 13 -69 27 -69 31 0 16 34 79 42 79 4
0 52 -16 106 -37z m2522 -29 c146 -72 440 -206 505 -232 44 -17 73 -38 40 -29
-11 3 -76 13 -145 23 -103 14 -142 24 -220 59 -164 73 -440 208 -435 213 3 4
89 27 115 31 3 1 66 -29 140 -65z m-3009 7 c-12 -22 -21 -44 -21 -49 0 -5 69
-23 153 -41 138 -29 153 -31 162 -16 29 47 27 47 78 29 27 -9 45 -20 40 -24
-4 -4 -62 -31 -128 -61 -199 -89 -645 -315 -1095 -554 -234 -125 -539 -285
-677 -356 l-253 -130 -35 77 c-58 127 -77 102 187 249 127 72 299 169 381 218
l149 87 29 -24 c89 -75 201 -54 307 58 57 60 87 117 98 184 l7 42 315 180
c174 99 317 178 320 176 2 -2 -6 -22 -17 -45z m95 23 c45 -15 91 -50 80 -61
-3 -3 -41 3 -85 12 -78 17 -79 18 -69 41 13 28 11 28 74 8z m1200 -65 c90 -40
164 -75 164 -80 0 -4 -4 -11 -10 -14 -5 -3 -10 -1 -10 5 0 14 -61 40 -94 40
-13 0 -34 -8 -46 -18 -23 -19 -25 -18 -152 36 -70 31 -125 58 -122 61 4 5 86
37 103 40 2 1 77 -31 167 -70z m-2033 -42 c15 -46 27 -86 27 -89 0 -3 -29 -8
-65 -10 -44 -4 -78 -14 -107 -31 -85 -49 -177 -171 -178 -234 0 -17 -31 -40
-147 -111 -259 -157 -635 -373 -644 -370 -6 2 -27 42 -48 90 l-39 87 217 135
c119 74 380 243 579 375 200 133 367 241 371 241 4 0 19 -37 34 -83z m4964
-100 c1 -2 -7 -17 -18 -34 l-20 -32 -181 74 c-99 41 -182 76 -185 79 -2 2 5
14 16 25 11 11 18 27 15 35 -3 9 69 -17 183 -65 103 -44 189 -81 190 -82z
m-3933 132 c14 -13 4 -17 -31 -12 -20 3 -33 11 -33 20 0 12 7 14 28 8 15 -3
31 -11 36 -16z m827 -44 c85 -36 159 -71 164 -78 16 -21 51 -37 83 -37 24 0
172 -56 187 -72 3 -3 -27 -10 -67 -17 l-72 -12 -288 117 c-158 65 -285 120
-282 123 7 7 95 39 110 40 7 1 81 -28 165 -64z m543 13 c64 -29 116 -55 116
-58 0 -3 -11 -18 -24 -34 l-23 -30 -119 54 c-65 29 -120 54 -121 55 -4 3 42
65 49 65 3 0 58 -24 122 -52z m-599 -119 c154 -62 284 -115 288 -119 4 -4 -26
-13 -68 -20 l-76 -13 -97 37 c-53 21 -177 68 -274 104 -98 37 -178 70 -178 74
0 5 98 44 120 47 3 1 131 -49 285 -110z m2916 6 l197 -81 -15 -29 c-9 -17 -17
-32 -19 -34 -3 -4 -176 63 -336 131 -54 23 -95 45 -93 52 24 68 24 67 47 55
13 -7 111 -49 219 -94z m-2419 36 c47 -22 103 -47 123 -55 37 -16 37 -17 20
-36 -27 -30 -82 -25 -177 16 -46 20 -86 39 -90 43 -6 5 29 69 38 71 1 0 40
-18 86 -39z m367 -73 c-73 -11 -118 -9 -149 7 l-30 15 22 34 22 33 89 -41 90
-41 -44 -7z m-1051 -30 c186 -70 267 -105 255 -110 -10 -4 -97 -28 -193 -54
-452 -120 -843 -272 -1695 -659 -556 -252 -988 -445 -999 -445 -2 0 10 26 26
58 26 50 29 66 26 128 l-3 71 435 220 c239 121 604 306 810 410 206 104 443
220 525 258 173 79 515 224 530 225 6 0 133 -46 283 -102z m3531 13 c86 -32
181 -66 211 -76 30 -10 58 -20 62 -24 4 -3 1 -20 -7 -37 l-13 -32 -169 60
c-92 32 -194 68 -225 79 -32 12 -58 25 -58 30 0 11 30 59 37 59 3 0 76 -26
162 -59z m-606 10 c51 -21 143 -58 205 -82 61 -23 112 -47 112 -52 0 -4 -4 -6
-8 -3 -9 5 -241 56 -348 76 -85 17 -89 20 -74 64 6 20 14 36 16 36 3 0 46 -17
97 -39z m-2043 -11 c0 -5 -9 -10 -21 -10 -11 0 -17 5 -14 10 3 6 13 10 21 10
8 0 14 -4 14 -10z m2610 -94 c80 -30 175 -63 213 -75 37 -13 67 -24 67 -26 0
-2 -4 -15 -10 -29 -9 -24 -10 -24 -39 -10 -17 9 -39 13 -49 10 -10 -4 -59 8
-110 24 -111 37 -272 97 -279 103 -2 3 3 19 12 37 12 23 21 30 33 25 9 -4 82
-30 162 -59z m-6487 -61 c9 -20 17 -40 17 -44 0 -10 -256 -178 -465 -305 -126
-77 -141 -84 -152 -69 -7 9 -13 22 -13 29 0 11 575 423 591 424 3 0 13 -16 22
-35z m4842 25 c204 -10 484 -35 492 -44 6 -6 -67 -207 -79 -221 -9 -10 -22 -6
-313 97 -171 60 -354 133 -410 162 l-30 16 65 0 c36 0 160 -5 275 -10z m1440
-8 c-3 -3 -11 0 -18 7 -9 10 -8 11 6 5 10 -3 15 -9 12 -12z m-1846 -19 c-13
-16 -25 -30 -26 -32 -4 -6 -123 41 -129 50 -3 5 36 9 87 9 l92 0 -24 -27z
m-321 -2 c-9 -16 -16 -17 -40 -9 -40 14 -35 28 12 28 37 0 39 -2 28 -19z m112
0 c38 -7 148 -45 158 -56 8 -8 -31 -66 -41 -62 -162 65 -223 89 -225 92 -2 2
3 13 10 24 9 16 19 20 33 15 11 -3 40 -9 65 -13z m-191 -22 l51 -22 -20 -31
c-11 -17 -26 -30 -32 -28 -7 1 -60 22 -118 45 -96 38 -102 42 -75 48 64 14
142 9 194 -12z m1476 -14 c320 -47 653 -126 1030 -245 55 -17 118 -37 140 -44
86 -27 215 -79 215 -87 0 -5 -10 -29 -22 -55 l-23 -46 -130 7 c-317 16 -745
71 -754 96 -2 7 -6 8 -10 1 -3 -6 -18 -8 -32 -5 -25 5 -26 6 -16 41 14 47 12
45 35 31 15 -9 31 -10 58 -3 71 18 72 76 1 82 -53 5 -73 -11 -92 -70 -10 -29
-21 -57 -25 -61 -4 -5 -47 -1 -95 9 l-87 17 31 24 c36 28 41 67 12 83 -30 15
-69 -7 -92 -52 -14 -28 -25 -38 -37 -34 -9 3 -36 10 -59 16 -40 10 -41 11 -30
39 8 23 8 33 -2 45 -20 24 -49 19 -84 -15 l-31 -31 -60 18 c-34 9 -66 20 -72
23 -8 4 1 40 27 111 22 58 41 110 43 116 3 6 15 10 28 8 13 -2 73 -11 133 -19z
m-1628 -41 c79 -31 143 -59 143 -63 0 -3 -10 -18 -23 -33 l-22 -27 -187 72
c-103 40 -190 76 -193 79 -3 3 16 8 42 12 29 4 49 2 53 -4 4 -7 11 -5 20 5 7
8 15 15 18 15 3 0 70 -25 149 -56z m769 20 c111 -45 448 -166 531 -190 55 -16
62 -21 57 -39 -9 -27 -8 -27 -38 -15 -15 5 -42 10 -59 10 -34 0 -342 100 -522
170 l-111 43 26 27 c14 15 25 28 26 29 0 0 40 -15 90 -35z m-424 -44 l108 -42
-15 -29 c-9 -16 -21 -29 -28 -29 -10 0 -124 41 -219 78 -16 7 -16 10 3 41 11
18 25 31 32 28 7 -3 60 -24 119 -47z m323 -21 c153 -58 515 -179 534 -179 12
0 12 -3 3 -12 -7 -7 -12 -20 -12 -30 0 -10 -3 -18 -6 -18 -35 0 -683 217 -703
236 -2 1 7 17 18 33 17 24 26 28 39 21 9 -5 67 -28 127 -51z m-4463 -79 l36
-89 -46 -30 c-86 -54 -336 -197 -460 -264 -120 -64 -123 -65 -132 -44 -4 12
-18 44 -29 70 -12 27 -21 54 -21 61 0 6 30 29 68 50 92 53 371 224 462 285 41
27 77 50 80 50 3 0 21 -40 42 -89z m4080 14 c59 -21 108 -43 108 -49 0 -5 -8
-20 -18 -33 l-18 -23 -114 40 c-62 23 -115 43 -117 45 -9 9 29 67 40 63 7 -2
60 -21 119 -43z m364 -28 c203 -73 453 -149 671 -205 140 -36 148 -40 145 -62
-1 -12 -4 -24 -6 -26 -20 -21 -1001 265 -1021 298 -5 7 22 59 29 59 1 0 83
-29 182 -64z m-424 -57 c65 -23 118 -44 118 -48 0 -3 -9 -17 -19 -30 l-18 -24
-114 38 c-63 21 -117 40 -122 42 -7 4 22 63 32 63 2 0 57 -19 123 -41z m603
-98 c171 -52 441 -122 540 -141 89 -17 87 -15 73 -45 -9 -20 -17 -25 -34 -21
-12 3 -68 15 -123 26 -203 40 -479 114 -754 202 -154 49 -157 51 -144 72 7 11
16 26 20 32 4 7 49 -4 134 -33 70 -24 200 -66 288 -92z m2486 112 c16 -3 29
-9 29 -14 0 -13 -9 -11 -65 11 -27 12 -37 18 -21 15 15 -3 41 -9 57 -12z
m-1848 -38 c52 -15 57 -19 51 -38 -3 -12 -8 -24 -11 -27 -3 -4 -134 28 -141
35 -2 1 0 15 4 29 4 18 11 25 23 22 9 -3 42 -12 74 -21z m242 -63 c30 -9 41
-28 27 -49 -5 -8 -33 -5 -104 11 -103 23 -113 27 -105 49 4 10 21 12 78 6 41
-5 88 -12 104 -17z m-280 -8 c47 -12 65 -21 65 -33 -1 -37 -13 -40 -102 -17
l-87 22 22 21 c28 26 26 26 102 7z m-5119 -78 c19 -44 34 -85 34 -91 0 -7 -51
-39 -112 -72 -113 -61 -514 -263 -522 -263 -5 0 -66 145 -66 158 0 5 70 46
155 91 146 77 397 218 440 247 11 8 23 13 28 11 5 -1 24 -38 43 -81z m5681 20
c9 -9 -9 -47 -20 -43 -7 2 -57 12 -112 22 -55 10 -104 21 -108 25 -5 4 -4 17
2 28 11 20 11 20 122 -4 61 -13 114 -25 116 -28z m-348 6 c76 -18 88 -26 72
-51 -8 -13 -22 -13 -103 3 -112 21 -118 24 -107 53 9 25 4 25 138 -5z m-6621
-21 c51 -26 98 -75 128 -133 l23 -46 -24 -16 c-29 -19 -177 -87 -181 -84 -1 2
-32 68 -68 147 -51 111 -64 147 -54 153 21 14 133 1 176 -21z m8074 5 c35 -13
83 -33 108 -44 25 -11 52 -22 60 -25 8 -2 -40 -5 -107 -6 l-121 -1 -4 50 c-1
27 -2 50 -1 50 2 0 31 -11 65 -24z m-1022 -22 c0 -18 -5 -24 -22 -23 -41 1
-56 12 -48 35 7 17 15 20 39 16 25 -3 31 -9 31 -28z m950 -14 c0 -33 -3 -40
-20 -40 -11 0 -20 2 -20 5 0 7 33 75 37 75 2 0 3 -18 3 -40z m-1148 4 c54 -10
98 -22 98 -28 -1 -34 -15 -36 -129 -16 -63 11 -116 21 -118 24 -3 2 -2 14 2
26 5 16 12 20 28 16 12 -3 65 -13 119 -22z m403 -1 c66 -9 121 -17 123 -18 1
-1 0 -10 -4 -19 -8 -20 -27 -20 -186 1 -125 16 -128 17 -128 41 0 23 3 24 38
18 20 -3 91 -14 157 -23z m1575 -4 c19 -6 14 -7 -25 -8 -27 0 -61 6 -75 15
-24 14 -22 14 25 8 27 -4 61 -10 75 -15z m-2237 -15 c82 -15 87 -18 81 -38 -6
-20 -5 -20 8 -3 13 18 18 18 131 1 109 -16 118 -19 115 -38 -3 -18 -9 -21 -48
-18 -67 3 -414 63 -423 72 -5 4 -6 18 -2 30 5 16 12 20 28 16 12 -3 62 -13
110 -22z m2357 -3 c19 -6 6 -10 -52 -16 -82 -8 -134 5 -63 16 55 8 86 8 115 0z
m-1931 -10 c11 -7 8 -12 -11 -25 -31 -20 -58 -12 -51 15 6 20 37 25 62 10z
m214 -26 c65 -8 128 -20 139 -26 11 -6 34 -8 51 -5 50 10 477 -16 517 -31 30
-12 5 -13 -197 -8 -310 7 -383 13 -384 34 -1 14 -2 14 -6 -1 -3 -12 -12 -16
-36 -13 -18 3 -77 9 -132 15 -55 6 -114 13 -132 16 -30 6 -30 7 -15 25 13 15
25 19 47 15 17 -3 83 -12 148 -21z m550 8 c128 -5 147 -8 145 -22 -3 -13 -15
-16 -63 -14 -371 14 -395 16 -395 27 0 24 16 28 90 22 41 -3 142 -9 223 -13z
m-7255 -70 c18 -42 31 -78 29 -79 -15 -15 -518 -247 -523 -241 -1 1 -15 32
-32 69 l-30 66 92 45 c104 50 104 50 105 -45 1 -34 5 -58 12 -58 6 0 10 29 8
81 l-2 81 144 78 c79 43 149 78 155 79 5 0 25 -33 42 -76z m7472 45 c0 -6 -10
-8 -22 -4 -13 3 -27 6 -31 6 -5 0 -6 4 -3 9 7 11 56 2 56 -11z m190 11 c0 -5
5 -7 11 -3 22 13 84 13 114 -1 28 -13 25 -14 -55 -13 -47 0 -122 -3 -167 -7
-72 -7 -83 -6 -83 8 0 13 15 17 83 20 45 1 85 4 90 5 4 1 7 -3 7 -9z m-1622
-23 c40 -8 76 -16 79 -19 2 -3 2 -14 -1 -25 -6 -18 -10 -19 -99 -5 -118 18
-127 22 -116 50 7 18 14 22 36 17 15 -2 61 -11 101 -18z m623 -23 c145 -15
156 -18 151 -35 -4 -17 -11 -19 -51 -14 -25 3 -112 11 -193 17 -82 7 -148 16
-148 20 0 13 33 28 60 29 14 0 95 -7 181 -17z m1208 8 c20 -13 -142 -25 -230
-17 -97 8 -99 15 -4 15 42 0 79 2 83 5 9 9 136 7 151 -3z m-1596 -22 c80 -9
107 -16 107 -27 0 -11 3 -12 14 -3 11 9 50 8 168 -4 84 -8 172 -15 196 -15 30
0 42 -4 42 -14 0 -8 -4 -17 -10 -21 -19 -11 -653 45 -668 59 -8 9 20 47 31 43
7 -2 60 -10 120 -18z m900 -15 c230 -6 287 -10 287 -21 0 -18 -261 -19 -289
-1 -15 9 -28 9 -60 -2 -30 -10 -72 -11 -163 -7 -67 4 -123 9 -126 12 -2 2 -2
12 2 21 5 12 14 15 34 10 15 -3 156 -9 315 -12z m762 7 c26 -10 -28 -18 -195
-27 -114 -6 -124 -5 -111 9 10 13 36 17 114 20 56 1 118 3 137 4 19 1 44 -2
55 -6z m-1917 -21 c53 -8 81 -17 79 -24 -4 -13 -5 -13 -128 -3 -90 8 -96 10
-91 29 4 15 11 19 31 15 14 -3 63 -11 109 -17z m-5154 -78 c20 -46 36 -87 36
-92 0 -6 -14 -10 -30 -10 -41 0 -103 -33 -132 -69 -13 -18 -56 -45 -103 -66
-130 -60 -378 -165 -381 -163 -13 14 -73 163 -67 168 5 3 73 36 153 74 80 37
222 106 315 155 94 48 171 87 171 87 1 -1 18 -38 38 -84z m6701 79 l40 -7 -57
-8 c-58 -7 -83 -2 -73 15 7 11 34 11 90 0z m434 -10 c16 -10 -32 -16 -244 -31
-229 -15 -278 -16 -282 -4 -3 8 32 14 114 19 65 3 165 10 223 14 150 12 173
12 189 2z m-1023 -21 c86 0 104 -3 104 -15 0 -13 -22 -15 -135 -15 -131 0
-135 1 -135 21 0 19 4 21 31 15 17 -3 78 -6 135 -6z m484 -14 c0 -12 -23 -15
-140 -18 -131 -3 -157 2 -135 24 3 3 66 6 140 7 115 2 135 0 135 -13z m-7372
-133 c18 -43 32 -81 32 -84 0 -12 -578 -252 -587 -245 -1 1 3 18 9 38 6 22 8
50 2 74 -4 22 -8 43 -8 47 -1 5 50 30 113 57 133 58 372 170 386 182 17 14 21
9 53 -69z m-3478 48 c34 -64 -12 -201 -97 -290 -41 -42 -45 -44 -55 -27 -18
32 -5 184 22 244 36 82 104 120 130 73z m2837 -105 c32 -65 33 -76 3 -76 -9 0
-39 -12 -66 -26 -50 -27 -271 -113 -423 -165 -65 -22 -87 -26 -93 -17 -11 18
-41 109 -37 112 2 2 92 37 199 80 107 42 233 94 280 115 47 22 90 40 95 40 6
1 25 -28 42 -63z m742 -177 c18 -44 32 -82 30 -83 -19 -16 -474 -176 -699
-246 -143 -44 -544 -150 -568 -150 -7 0 -5 14 4 36 8 20 14 52 12 72 -1 19 2
37 7 38 6 1 94 28 197 58 103 31 197 56 209 56 12 0 38 9 58 20 20 10 115 48
211 84 97 36 245 94 330 130 85 36 160 65 165 65 6 0 25 -36 44 -80z m491 -11
c0 -54 30 -105 73 -123 l32 -13 -30 -12 c-16 -7 -102 -39 -190 -71 -88 -33
-171 -64 -184 -70 -13 -5 -25 -8 -26 -7 -6 8 -74 172 -72 174 1 2 72 32 157
67 85 36 171 72 190 81 49 21 50 21 50 -26z m-1850 -54 c11 -31 19 -58 17 -60
-11 -12 -579 -169 -581 -161 -5 19 -28 44 -48 51 -40 14 -78 -2 -129 -53 l-47
-48 -164 -26 c-89 -15 -226 -33 -303 -42 -226 -24 -203 -26 -212 15 -8 29 -13
34 -32 32 -15 -2 -21 0 -17 7 4 6 23 11 42 11 55 0 363 48 546 85 267 54 586
141 803 219 99 35 100 35 125 -30z m453 9 c-10 -35 -10 -82 0 -108 6 -18 1
-22 -30 -32 -21 -5 -98 -29 -172 -51 -74 -23 -136 -41 -137 -39 -5 5 -54 120
-52 122 6 3 383 133 391 134 4 1 4 -11 0 -26z m981 -122 l15 -28 -44 -6 c-25
-2 -61 -15 -79 -28 -39 -27 -84 -91 -93 -132 -7 -35 -11 -37 -178 -85 -417
-121 -844 -210 -1249 -262 -160 -20 -497 -52 -501 -48 -2 2 -6 26 -10 55 l-7
52 44 5 c23 3 130 17 236 31 386 50 797 139 1187 255 148 44 478 155 575 193
83 33 86 33 104 -2z m-1366 -60 c12 -30 21 -55 19 -57 -6 -7 -332 -85 -467
-112 -168 -35 -350 -66 -354 -61 -2 2 -6 16 -10 32 -6 26 -5 27 29 27 42 0 68
12 110 50 25 22 68 36 240 79 116 28 253 64 305 80 52 16 98 26 101 22 3 -3
15 -30 27 -60z m-2423 -75 l7 -49 -32 7 c-18 3 -46 6 -63 6 l-31 0 49 50 c27
27 52 47 56 42 4 -4 10 -29 14 -56z m805 7 c0 -14 -42 -18 -54 -6 -4 4 3 15
16 24 23 18 37 11 38 -18z m-80 -13 c0 -5 -5 -10 -11 -10 -5 0 -7 5 -4 10 3 6
8 10 11 10 2 0 4 -4 4 -10z m97 -45 c2 -6 -7 -16 -18 -23 -18 -12 -23 -12 -30
0 -17 26 -10 39 18 36 14 -2 28 -8 30 -13z m-73 -21 c10 -40 -16 -53 -101 -54
-65 0 -73 2 -73 19 0 11 -3 26 -6 34 -6 18 17 23 112 26 59 1 62 0 68 -25z
m-776 6 c51 0 53 -11 7 -39 -31 -18 -45 -20 -101 -13 l-66 7 23 29 c19 24 27
27 58 22 20 -3 55 -6 79 -6z m496 -2 c3 -7 7 -25 10 -40 l6 -28 -124 0 c-118
0 -127 1 -181 30 -32 17 -75 31 -99 32 -22 1 42 5 144 8 102 3 198 7 213 8 15
1 29 -4 31 -10z m80 -10 c11 -41 7 -53 -18 -54 -24 -2 -36 17 -36 59 0 27 46
23 54 -5z m1040 -9 c15 -75 15 -75 -81 -88 -163 -20 -367 -40 -493 -47 l-125
-7 -11 41 -11 41 51 5 c28 3 103 10 166 16 121 12 353 44 430 59 67 13 67 13
74 -20z m694 -20 c-6 -17 -8 -46 -5 -64 4 -26 2 -35 -11 -39 -59 -19 -619
-102 -627 -94 -2 2 -7 26 -10 54 l-7 51 113 18 c124 18 511 94 518 101 2 2 12
4 22 4 16 0 17 -4 7 -31z m-2390 -35 c30 -6 31 -7 15 -30 -13 -21 -23 -24 -74
-24 -33 0 -59 2 -59 5 0 2 5 16 12 30 12 27 41 32 106 19z m961 -35 c16 -46
14 -51 -16 -47 -34 4 -51 52 -25 68 26 14 29 13 41 -21z m-362 5 c4 -10 -1
-22 -10 -29 -10 -7 -17 -18 -17 -25 0 -8 -8 -10 -22 -6 -13 3 -53 6 -90 6 -65
0 -66 1 -87 35 l-20 35 120 0 c102 0 121 -2 126 -16z m72 12 c-2 -2 -14 -9
-26 -15 -19 -10 -23 -9 -23 4 0 10 9 15 27 15 14 0 24 -2 22 -4z m176 -15 c4
-12 12 -17 24 -14 12 3 20 -2 24 -16 2 -11 2 -22 -1 -25 -10 -11 -182 -6 -182
4 0 6 7 10 16 10 12 0 14 7 9 30 l-7 30 56 0 c45 0 56 -3 61 -19z m-620 -31
c17 -7 15 -9 -12 -9 -17 -1 -35 4 -38 9 -7 12 22 12 50 0z m-242 -22 c-2 -5
-3 -18 -3 -29 0 -20 -4 -21 -55 -17 -64 5 -69 9 -62 40 6 22 10 23 64 18 32
-3 57 -8 56 -12z m1727 15 c1 -5 5 -27 9 -50 l8 -42 -36 -5 c-95 -15 -315 -27
-603 -33 -299 -6 -318 -5 -318 12 0 12 -5 15 -17 11 -18 -7 -33 9 -33 37 0 15
11 17 94 17 93 0 94 0 100 -26 8 -30 21 -24 21 9 0 21 5 22 85 24 122 3 387
23 510 37 129 16 180 18 180 9z m-1560 -37 c0 -8 3 -21 6 -30 5 -13 -2 -16
-37 -16 -59 0 -75 11 -60 39 9 16 21 21 51 21 28 0 40 -4 40 -14z m137 -1 c7
-2 19 -18 28 -35 l16 -32 -68 7 c-37 4 -69 8 -69 9 -1 0 -5 16 -9 34 l-7 34
49 -7 c26 -4 53 -8 60 -10z m297 -20 c3 -8 12 -12 20 -9 10 4 17 -3 22 -21 3
-14 4 -28 1 -31 -3 -3 -54 -2 -114 3 l-108 8 -3 33 -3 32 89 0 c70 0 91 -3 96
-15z m112 1 c1 -1 4 -16 7 -33 6 -31 5 -33 -23 -33 -22 0 -30 5 -30 18 0 9 -3
27 -6 40 -6 21 -4 22 22 16 16 -4 29 -7 30 -8z m-724 -35 c4 -3 10 -19 14 -34
6 -28 6 -28 -32 -22 -96 16 -94 15 -94 45 l0 29 53 -6 c28 -3 55 -8 59 -12z
m166 -17 c28 -4 32 -9 32 -34 0 -33 -5 -34 -84 -24 -37 6 -47 11 -52 30 -11
42 -1 44 104 28z m190 -20 c8 -2 12 -15 10 -31 -3 -27 -5 -28 -62 -27 -61 2
-76 11 -76 51 0 20 4 21 58 16 31 -2 63 -7 70 -9z m272 -20 c40 -5 43 -7 26
-19 -12 -9 -16 -20 -11 -34 6 -19 2 -21 -32 -21 -42 1 -184 18 -190 23 -2 2 0
18 3 35 l6 32 77 -6 c42 -3 96 -7 121 -10z m1135 -21 c3 -21 8 -45 9 -54 3
-13 -10 -17 -72 -23 -98 -8 -601 -8 -775 1 -125 6 -137 8 -143 26 -4 13 -1 25
10 32 9 7 16 16 16 21 0 5 157 10 358 11 196 1 398 6 447 11 152 16 143 17
150 -25z m-1715 -24 c11 -20 71 -59 91 -59 8 1 -4 17 -26 36 l-40 35 30 -5
c17 -3 47 -8 67 -12 39 -6 41 -10 53 -78 8 -48 -2 -56 -72 -56 -74 0 -154 33
-198 81 -29 32 -55 76 -55 93 0 1 32 -2 70 -7 51 -7 74 -15 80 -28z m710 -24
c0 -10 -10 -15 -27 -15 l-28 1 25 14 c31 18 30 18 30 0z m-426 -4 c17 -6 16
-9 -9 -39 -15 -18 -35 -37 -45 -42 -15 -8 -19 -3 -27 40 l-10 50 36 -1 c20 0
44 -4 55 -8z"/>
<path d="M12778 4183 c7 -3 16 -2 19 1 4 3 -2 6 -13 5 -11 0 -14 -3 -6 -6z"/>
<path d="M12680 2283 c-333 -238 -762 -493 -1121 -667 -724 -350 -1406 -546
-2204 -633 -230 -25 -930 -25 -1165 0 -606 64 -971 145 -1930 429 -847 250
-1203 346 -1528 415 l-134 28 -14 35 c-19 45 -80 108 -121 126 -18 8 -52 14
-77 14 -37 0 -48 -5 -69 -30 -14 -16 -28 -42 -32 -58 l-6 -29 -117 18 c-537
84 -1132 112 -1702 83 l-115 -6 3 46 c2 25 0 54 -4 64 -6 11 -10 -4 -14 -48
l-5 -65 -140 -12 c-212 -19 -673 -87 -813 -120 -20 -5 -22 -1 -22 33 0 44 -17
36 -22 -11 -2 -24 -8 -31 -29 -33 -25 -3 -26 -2 -21 52 6 76 -14 72 -22 -4 -6
-51 -10 -61 -29 -65 -12 -3 -76 -18 -142 -34 l-120 -30 -28 29 c-16 16 -49 39
-74 51 l-46 22 7 116 c6 124 -1 179 -31 220 -35 46 -70 64 -132 69 -168 12
-266 -155 -148 -254 25 -21 38 -25 66 -20 53 8 76 37 76 95 0 58 -22 88 -72
97 -72 14 -6 57 76 50 58 -5 90 -27 119 -81 16 -31 21 -192 7 -254 -6 -27 -9
-29 -61 -30 -117 -1 -235 -87 -284 -205 l-23 -53 -193 -64 c-107 -35 -194 -67
-194 -71 0 -12 4 -11 195 51 l180 59 3 -25 c2 -14 2 -27 -1 -29 -2 -3 -87 -30
-188 -60 -186 -56 -196 -60 -187 -69 3 -4 202 52 361 101 13 4 17 -1 17 -24 0
-29 -1 -29 -122 -61 -182 -48 -258 -72 -258 -81 0 -5 39 2 88 16 230 64 294
78 303 63 15 -23 10 -38 -14 -44 -144 -32 -364 -89 -371 -96 -16 -14 2 -11
175 30 240 58 233 57 247 27 11 -24 10 -25 -46 -36 -117 -23 -376 -81 -381
-85 -13 -14 14 -12 86 5 44 10 144 31 223 46 l142 27 25 -32 c13 -17 72 -70
130 -118 l105 -86 -6 -49 c-8 -61 9 -193 35 -273 41 -123 132 -220 173 -185
41 33 68 230 47 332 -19 88 -67 174 -144 255 l-70 73 6 61 c3 33 7 62 9 64 7
7 302 37 402 40 59 2 111 6 114 9 3 4 34 6 70 6 l64 0 -7 -36 c-5 -28 -2 -39
11 -48 15 -11 15 -21 7 -82 -6 -38 -9 -71 -7 -73 11 -12 23 18 29 74 3 36 10
65 14 65 4 0 15 -6 25 -13 17 -12 18 -21 9 -81 -5 -37 -6 -69 -2 -72 12 -7 17
8 25 74 6 54 9 62 24 57 26 -8 40 53 16 70 -9 7 -16 24 -16 39 l0 26 166 0
c276 0 611 -31 939 -86 147 -25 403 -78 410 -86 2 -2 -11 -61 -30 -131 -18
-70 -30 -129 -25 -132 9 -5 25 43 55 166 25 101 16 97 157 61 154 -40 461
-132 470 -141 4 -3 -35 -139 -87 -301 -52 -162 -95 -296 -95 -297 0 -2 6 -3
13 -3 7 0 29 27 47 60 38 68 59 86 181 158 46 27 101 67 123 88 40 38 86 123
86 159 1 44 13 43 165 -18 83 -33 151 -61 152 -62 2 -1 -9 -41 -23 -89 -14
-49 -24 -90 -22 -91 4 -4 699 -375 703 -375 1 0 15 47 31 105 16 58 33 105 38
105 15 0 423 -222 683 -370 l228 -131 77 3 78 3 -233 130 c-301 168 -509 280
-680 367 -133 68 -138 71 -132 97 15 63 46 161 51 161 15 0 602 -289 899 -443
l340 -176 0 -33 c0 -18 -4 -50 -8 -70 -7 -34 -6 -38 12 -38 14 0 21 9 25 30 3
16 8 43 12 59 l5 29 112 -59 112 -59 105 1 105 0 -209 105 c-189 96 -208 107
-202 127 3 12 15 68 27 125 12 56 25 102 29 102 4 0 62 -25 131 -56 68 -30
234 -103 369 -161 135 -58 246 -106 247 -107 1 -1 -9 -32 -23 -70 l-24 -67 21
3 c14 2 26 16 37 43 8 22 17 42 18 44 2 2 22 -13 44 -33 32 -29 48 -36 80 -36
22 0 49 5 59 11 14 9 31 7 81 -10 57 -19 86 -21 267 -21 112 0 203 2 203 5 0
19 -45 88 -81 124 -106 105 -252 121 -289 31 -14 -35 -20 -36 -82 -14 -35 11
-49 22 -56 43 -6 16 -39 81 -76 146 -59 107 -66 116 -74 94 -5 -13 -21 -59
-37 -101 -15 -43 -31 -78 -36 -78 -8 0 -528 213 -673 277 l-89 38 -20 58 c-13
39 -35 75 -69 113 -118 129 -258 156 -346 68 l-35 -35 -221 94 c-121 52 -302
127 -401 167 -99 40 -183 76 -187 79 -7 6 49 201 57 201 10 0 518 -189 835
-310 523 -200 684 -261 935 -350 755 -269 1487 -426 2186 -471 236 -15 826 -6
1033 15 650 68 1221 209 1818 450 181 72 510 223 633 289 l60 32 3 143 c1 78
1 142 -1 142 -2 0 -57 -30 -123 -66 -1295 -717 -2703 -979 -4149 -773 -632 89
-1164 237 -2133 590 -213 78 -542 197 -732 264 l-344 123 -2 58 c-1 62 -27
128 -67 171 l-20 23 54 -16 c152 -44 482 -145 709 -216 1149 -361 1446 -441
1940 -522 388 -63 618 -81 1060 -81 379 0 477 6 790 46 1005 128 1977 506
2952 1150 l68 44 0 143 c0 78 -3 142 -7 142 -5 -1 -37 -22 -73 -47z m-9227
-327 c301 -29 480 -51 729 -92 l106 -17 18 -39 c36 -79 139 -147 204 -134 28
5 28 4 19 -26 -4 -17 -10 -32 -12 -35 -2 -2 -60 10 -128 26 -618 146 -1235
221 -1829 221 l-220 0 0 55 0 54 78 4 c171 9 881 -3 1035 -17z m-1132 -41 c-1
-28 -4 -51 -5 -53 -2 -1 -79 -7 -172 -12 -197 -12 -397 -32 -613 -62 -116 -16
-156 -19 -159 -10 -2 7 -10 12 -18 12 -8 0 -14 10 -14 24 0 28 -11 25 200 61
245 41 713 97 770 91 11 -1 14 -13 11 -51z m-1541 -97 c0 -75 -6 -83 -71 -100
-32 -9 -59 -13 -59 -9 0 3 14 18 32 33 30 25 31 27 12 28 -13 0 -37 -17 -58
-40 -27 -31 -52 -46 -98 -60 -34 -11 -64 -17 -66 -15 -12 12 27 85 68 126 53
53 113 77 193 78 l47 1 0 -42z m76 10 c29 -23 55 -51 50 -55 -1 -2 -24 -9 -49
-17 l-47 -14 0 54 c0 30 4 54 9 54 4 0 21 -10 37 -22z m464 -3 c0 -8 -9 -15
-19 -15 -29 0 -35 18 -9 23 13 2 24 5 26 6 1 0 2 -6 2 -14z m1000 -60 l0 -55
-147 0 c-130 0 -209 -4 -541 -25 -40 -2 -77 -7 -83 -10 -5 -4 -9 5 -9 19 0 14
-4 26 -10 26 -5 0 -10 -11 -10 -24 0 -21 -5 -24 -62 -30 -35 -4 -78 -9 -95
-13 -32 -5 -33 -4 -33 32 0 32 2 36 20 30 13 -4 20 -2 20 7 0 11 43 20 173 36
183 24 470 50 602 55 44 2 101 4 128 5 l47 2 0 -55z m620 39 l56 -6 -4 -33
c-2 -18 4 -47 13 -65 l17 -33 -73 7 c-227 20 -299 25 -446 32 l-163 7 0 55 0
55 273 -7 c149 -3 297 -9 327 -12z m-1734 -18 c-5 -19 -1 -25 16 -29 12 -4 20
-8 17 -11 -5 -5 -205 -46 -226 -46 -9 0 -38 58 -30 61 12 5 197 48 211 48 14
1 17 -4 12 -23z m2414 -57 c204 -32 457 -82 677 -135 109 -27 199 -49 200 -49
4 -2 -44 -165 -50 -171 -2 -2 -60 12 -128 32 -68 19 -225 60 -349 90 -124 31
-243 61 -266 69 -23 8 -54 14 -70 13 -16 0 -111 14 -212 31 -101 17 -188 31
-193 31 -5 0 -9 15 -9 33 0 17 -11 50 -23 73 l-24 40 156 -18 c86 -10 217 -27
291 -39z m1243 -6 l189 -45 -32 -19 c-38 -24 -63 -79 -58 -131 2 -21 0 -38 -3
-38 -10 0 -402 110 -406 113 -1 2 6 30 16 63 11 32 22 72 26 88 7 34 -4 35
268 -31z m-3929 -15 c6 -26 4 -27 -51 -38 -32 -7 -63 -15 -70 -17 -9 -4 -13 6
-13 30 0 34 1 35 58 49 63 16 67 15 76 -24z m376 -5 c0 -42 -13 -63 -36 -63
-19 0 -24 5 -24 24 0 40 11 56 36 56 16 0 24 -6 24 -17z m-540 -26 c0 -32 -2
-34 -51 -45 -73 -17 -79 -16 -79 17 0 27 4 30 58 44 31 8 60 15 65 16 4 1 7
-14 7 -32z m462 3 c-2 -18 -10 -30 -19 -30 -8 0 -21 -6 -28 -14 -8 -7 -40 -17
-72 -21 -32 -3 -68 -9 -80 -12 -21 -5 -23 -1 -23 31 0 20 1 36 3 37 229 46
224 46 219 9z m1086 -61 l-3 -50 -358 -2 -359 -2 5 38 c3 21 7 41 10 43 10 10
249 21 475 23 l233 1 -3 -51z m392 30 c132 -10 463 -48 468 -54 2 -2 -4 -31
-14 -64 -12 -43 -21 -61 -33 -61 -9 0 -70 9 -136 20 -66 11 -201 29 -300 41
-107 12 -186 25 -195 33 -35 31 -84 48 -124 44 l-42 -5 4 35 4 34 122 -6 c66
-4 177 -11 246 -17z m-2120 -19 c0 -26 -5 -30 -42 -40 -24 -6 -51 -13 -60 -16
-14 -4 -18 1 -18 25 0 28 4 32 48 45 67 21 72 20 72 -14z m340 10 c0 -35 -25
-59 -72 -69 -27 -6 -51 -11 -53 -11 -3 0 -5 15 -5 34 0 32 2 34 48 44 64 13
82 14 82 2z m646 -56 c-7 -25 -21 -30 -44 -16 -20 13 -4 70 22 74 23 3 32 -18
22 -58z m-66 36 c0 -13 -10 -24 -25 -30 -14 -5 -25 -16 -25 -25 0 -13 -37 -19
-97 -14 -5 0 -7 11 -6 24 1 16 -5 25 -20 30 -29 8 -13 14 64 24 104 14 109 13
109 -9z m-740 -29 c0 -33 -2 -35 -42 -45 -20 -5 -33 -1 -48 14 -29 29 -25 36
23 47 65 16 67 16 67 -16z m430 -11 c17 -17 28 -50 17 -50 -2 0 -54 -7 -117
-15 -62 -8 -115 -13 -117 -11 -3 3 15 53 24 65 3 4 126 27 161 30 6 1 21 -8
32 -19z m2170 -15 c203 -36 189 -31 183 -70 -3 -21 1 -51 11 -75 9 -22 16 -42
16 -43 0 -2 -66 11 -147 29 -82 18 -174 38 -205 44 -32 6 -58 16 -58 22 0 28
33 118 43 118 7 0 77 -11 157 -25z m-2798 -52 c-57 -18 -80 -16 -87 8 -9 26
-6 28 52 43 47 13 48 13 60 -13 11 -25 10 -27 -25 -38z m711 36 c7 0 3 -4 -8
-9 -29 -13 -35 -12 -35 6 0 11 5 14 16 10 9 -3 21 -6 27 -7z m-437 -14 c-11
-8 -29 -15 -40 -15 -36 0 7 25 49 29 6 0 1 -6 -9 -14z m1324 -4 l145 -7 36
-36 c58 -59 151 -64 172 -9 l10 27 171 -22 c173 -23 418 -62 424 -69 5 -5 -20
-115 -27 -119 -3 -2 -82 11 -176 30 -366 72 -713 110 -1107 121 -131 3 -238
10 -238 14 0 4 9 5 20 2 17 -5 20 0 20 30 0 34 2 36 38 40 67 7 363 6 512 -2z
m2781 -120 c31 -10 77 -35 103 -55 49 -37 99 -52 141 -42 17 4 23 3 20 -6 -2
-7 -16 -52 -30 -100 l-26 -87 -82 30 c-222 83 -314 116 -447 159 -165 54 -155
41 -120 161 l20 67 183 -54 c100 -29 207 -62 238 -73z m-3466 98 c3 -3 2 -20
-1 -37 l-6 -31 -84 -3 -84 -3 0 37 c0 30 4 37 23 41 28 7 144 3 152 -4z m-195
-23 c0 -40 -11 -56 -36 -56 -21 0 -24 5 -24 33 0 40 6 47 37 47 18 0 23 -6 23
-24z m-651 -10 c26 -27 21 -31 -58 -42 -44 -6 -50 -4 -61 16 -14 27 -14 27 36
39 57 13 59 13 83 -13z m571 -10 c0 -40 20 -35 -235 -62 -82 -8 -158 -18 -167
-20 -10 -3 -18 -1 -18 4 0 5 19 12 42 15 23 3 61 19 86 37 37 26 61 34 141 44
153 21 151 22 151 -18z m334 18 c25 -9 19 -31 -9 -36 -29 -6 -38 3 -29 26 7
17 14 19 38 10z m2409 -44 c102 -26 466 -129 475 -135 7 -5 -44 -165 -53 -165
-5 0 -71 20 -145 45 -74 25 -193 62 -265 84 l-130 38 3 51 c3 32 -2 63 -11 82
-9 16 -11 30 -6 30 6 0 65 -14 132 -30z m-3229 -25 c62 -26 47 -37 -67 -50
-48 -6 -61 -4 -77 10 -29 26 -25 32 28 43 67 14 75 14 116 -3z m824 -17 c-2
-17 -9 -22 -23 -20 -45 8 -44 42 1 42 21 0 25 -4 22 -22z m-71 6 c-3 -3 -12
-4 -19 -1 -8 3 -5 6 6 6 11 1 17 -2 13 -5z m1808 -20 c162 -34 352 -82 398
-99 20 -8 48 -15 62 -15 13 0 26 -4 29 -9 8 -12 -34 -141 -45 -141 -5 0 -91
24 -191 54 -101 29 -236 66 -301 82 -92 22 -116 31 -113 44 23 88 29 110 35
110 3 0 60 -12 126 -26z m-2539 -131 c-2 -3 -30 14 -60 38 -31 23 -54 44 -52
46 3 3 29 8 58 12 l53 6 3 -49 c2 -26 1 -50 -2 -53z m3879 -17 c126 -42 373
-134 496 -184 14 -6 13 -17 -11 -102 -19 -66 -32 -94 -41 -92 -8 2 -86 34
-174 72 -88 38 -231 95 -319 129 -87 33 -160 62 -163 64 -5 6 40 167 47 167 3
0 78 -24 165 -54z m-670 -27 c169 -53 388 -129 397 -138 6 -5 -27 -148 -37
-159 -2 -2 -68 21 -147 52 -78 30 -150 58 -160 61 -11 5 -18 24 -23 68 -7 72
-14 97 -23 97 -4 0 -5 -33 -1 -72 3 -40 5 -74 4 -75 -2 -3 -188 58 -194 64 -7
5 39 143 47 143 3 0 65 -18 137 -41z m628 -223 c170 -68 457 -193 469 -204 4
-4 -5 -48 -19 -98 l-26 -91 -171 82 c-94 45 -242 113 -329 150 l-159 68 7 33
c15 81 36 136 51 130 8 -3 88 -35 177 -70z m-3743 18 c92 -86 144 -196 120
-254 -15 -37 -34 -43 -70 -25 -42 22 -79 75 -101 146 -20 65 -26 179 -9 179 6
0 33 -21 60 -46z m3020 12 c107 -38 109 -41 68 -121 -47 -95 -146 -159 -237
-153 l-47 3 50 153 c27 83 54 152 60 152 6 -1 54 -16 106 -34z m1562 -89 c134
-57 319 -137 411 -178 l168 -74 30 -62 c34 -72 99 -134 177 -170 45 -21 65
-25 123 -21 38 2 69 3 69 1 0 -3 -29 -145 -35 -170 -5 -22 -26 -13 -384 166
-208 105 -486 240 -617 301 -132 61 -242 115 -246 118 -8 9 43 192 53 192 5 0
118 -46 251 -103z m-991 -138 c52 -22 197 -90 322 -152 l228 -111 -6 -36 c-12
-66 23 -79 -395 143 -146 77 -266 141 -268 142 -3 3 16 55 21 55 2 0 46 -18
98 -41z m2927 -501 c12 -35 22 -71 22 -80 0 -15 -3 -16 -32 -4 -18 7 -41 16
-50 19 -16 6 -16 10 3 66 12 34 24 61 28 61 4 0 17 -28 29 -62z m-48 -188 c13
-8 13 -10 -2 -10 -9 0 -20 5 -23 10 -8 13 5 13 25 0z"/>
<path d="M11453 315 c-76 -21 -129 -51 -184 -102 -53 -49 -99 -131 -99 -175
l0 -28 527 0 527 0 -39 41 c-104 107 -271 209 -413 250 -90 27 -250 34 -319
14z"/>
<path d="M12605 130 c-77 -31 -178 -71 -225 -88 l-85 -31 233 0 232 -1 0 90
c0 50 -3 89 -7 89 -5 -1 -71 -27 -148 -59z"/>
</g>
</svg>
